<mxfile host="app.diagrams.net" agent="Mozilla/5.0 (Macintosh; Intel Mac OS X 10_15_7) AppleWebKit/537.36 (KHTML, like Gecko) Chrome/131.0.0.0 Safari/537.36" version="25.0.3">
  <diagram id="g1hmAGTagE3BuL35Wz1z" name="Page-1">
    <mxGraphModel dx="3984" dy="3619" grid="1" gridSize="10" guides="1" tooltips="1" connect="1" arrows="1" fold="1" page="1" pageScale="1" pageWidth="850" pageHeight="1400" math="0" shadow="0">
      <root>
        <mxCell id="0" />
        <mxCell id="1" parent="0" />
        <mxCell id="3Y9sHF1bnUpzQe8AANxG-1" value="&lt;p style=&quot;margin:0px;margin-top:4px;text-align:center;&quot;&gt;&lt;b&gt;Fact_Sales&lt;/b&gt;&lt;/p&gt;&lt;hr size=&quot;1&quot; style=&quot;border-style:solid;&quot;&gt;&lt;div style=&quot;height:2px;&quot;&gt;&lt;/div&gt;" style="verticalAlign=top;align=left;overflow=fill;html=1;whiteSpace=wrap;labelBackgroundColor=none;fillColor=#BC6C25;strokeColor=#DDA15E;fontColor=#FEFAE0;" vertex="1" parent="1">
          <mxGeometry x="170" y="262.2" width="550" height="550" as="geometry" />
        </mxCell>
        <mxCell id="3Y9sHF1bnUpzQe8AANxG-2" value="" style="endArrow=none;html=1;rounded=0;entryX=0.202;entryY=-0.004;entryDx=0;entryDy=0;exitX=0.195;exitY=0.996;exitDx=0;exitDy=0;entryPerimeter=0;exitPerimeter=0;labelBackgroundColor=none;fontColor=default;strokeColor=#DDA15E;" edge="1" parent="1" source="3Y9sHF1bnUpzQe8AANxG-1" target="3Y9sHF1bnUpzQe8AANxG-1">
          <mxGeometry width="50" height="50" relative="1" as="geometry">
            <mxPoint x="520" y="462.2" as="sourcePoint" />
            <mxPoint x="570" y="412.2" as="targetPoint" />
          </mxGeometry>
        </mxCell>
        <mxCell id="3Y9sHF1bnUpzQe8AANxG-3" value="NUMBER" style="text;html=1;align=center;verticalAlign=middle;whiteSpace=wrap;rounded=0;labelBackgroundColor=none;fontColor=#FEFAE0;" vertex="1" parent="1">
          <mxGeometry x="560" y="302.2" width="170" height="30" as="geometry" />
        </mxCell>
        <mxCell id="3Y9sHF1bnUpzQe8AANxG-4" value="NUMBER" style="text;html=1;align=center;verticalAlign=middle;whiteSpace=wrap;rounded=0;labelBackgroundColor=none;fontColor=#FEFAE0;" vertex="1" parent="1">
          <mxGeometry x="560" y="332.2" width="170" height="30" as="geometry" />
        </mxCell>
        <mxCell id="3Y9sHF1bnUpzQe8AANxG-5" value="VARCHAR" style="text;html=1;align=center;verticalAlign=middle;whiteSpace=wrap;rounded=0;labelBackgroundColor=none;fontColor=#FEFAE0;" vertex="1" parent="1">
          <mxGeometry x="560" y="362.2" width="170" height="30" as="geometry" />
        </mxCell>
        <mxCell id="3Y9sHF1bnUpzQe8AANxG-6" value="NUMBER" style="text;html=1;align=center;verticalAlign=middle;whiteSpace=wrap;rounded=0;labelBackgroundColor=none;fontColor=#FEFAE0;" vertex="1" parent="1">
          <mxGeometry x="560" y="392.2" width="170" height="30" as="geometry" />
        </mxCell>
        <mxCell id="3Y9sHF1bnUpzQe8AANxG-7" value="NUMBER" style="text;html=1;align=center;verticalAlign=middle;whiteSpace=wrap;rounded=0;labelBackgroundColor=none;fontColor=#FEFAE0;" vertex="1" parent="1">
          <mxGeometry x="560" y="422.2" width="170" height="30" as="geometry" />
        </mxCell>
        <mxCell id="3Y9sHF1bnUpzQe8AANxG-8" value="NUMBER" style="text;html=1;align=center;verticalAlign=middle;whiteSpace=wrap;rounded=0;labelBackgroundColor=none;fontColor=#FEFAE0;" vertex="1" parent="1">
          <mxGeometry x="560" y="452.2" width="170" height="30" as="geometry" />
        </mxCell>
        <mxCell id="3Y9sHF1bnUpzQe8AANxG-9" value="FLOAT" style="text;html=1;align=center;verticalAlign=middle;whiteSpace=wrap;rounded=0;labelBackgroundColor=none;fontColor=#FEFAE0;" vertex="1" parent="1">
          <mxGeometry x="560" y="482.2" width="170" height="30" as="geometry" />
        </mxCell>
        <mxCell id="3Y9sHF1bnUpzQe8AANxG-10" value="NUMBER" style="text;html=1;align=center;verticalAlign=middle;whiteSpace=wrap;rounded=0;labelBackgroundColor=none;fontColor=#FEFAE0;" vertex="1" parent="1">
          <mxGeometry x="560" y="512.2" width="170" height="30" as="geometry" />
        </mxCell>
        <mxCell id="3Y9sHF1bnUpzQe8AANxG-11" value="NUMBER" style="text;html=1;align=center;verticalAlign=middle;whiteSpace=wrap;rounded=0;labelBackgroundColor=none;fontColor=#FEFAE0;" vertex="1" parent="1">
          <mxGeometry x="560" y="542.2" width="170" height="30" as="geometry" />
        </mxCell>
        <mxCell id="3Y9sHF1bnUpzQe8AANxG-12" value="NUMBER" style="text;html=1;align=center;verticalAlign=middle;whiteSpace=wrap;rounded=0;labelBackgroundColor=none;fontColor=#FEFAE0;" vertex="1" parent="1">
          <mxGeometry x="560" y="572.2" width="170" height="30" as="geometry" />
        </mxCell>
        <mxCell id="3Y9sHF1bnUpzQe8AANxG-13" value="NUMBER" style="text;html=1;align=center;verticalAlign=middle;whiteSpace=wrap;rounded=0;labelBackgroundColor=none;fontColor=#FEFAE0;" vertex="1" parent="1">
          <mxGeometry x="560" y="602.2" width="170" height="30" as="geometry" />
        </mxCell>
        <mxCell id="3Y9sHF1bnUpzQe8AANxG-14" value="NUMBER" style="text;html=1;align=center;verticalAlign=middle;whiteSpace=wrap;rounded=0;labelBackgroundColor=none;fontColor=#FEFAE0;" vertex="1" parent="1">
          <mxGeometry x="560" y="632.2" width="170" height="30" as="geometry" />
        </mxCell>
        <mxCell id="3Y9sHF1bnUpzQe8AANxG-15" value="TIMESTAMP_NTZ" style="text;html=1;align=center;verticalAlign=middle;whiteSpace=wrap;rounded=0;labelBackgroundColor=none;fontColor=#FEFAE0;" vertex="1" parent="1">
          <mxGeometry x="560" y="662.2" width="170" height="30" as="geometry" />
        </mxCell>
        <mxCell id="3Y9sHF1bnUpzQe8AANxG-16" value="TIMESTAMP_NTZ" style="text;html=1;align=center;verticalAlign=middle;whiteSpace=wrap;rounded=0;labelBackgroundColor=none;fontColor=#FEFAE0;" vertex="1" parent="1">
          <mxGeometry x="560" y="692.2" width="170" height="30" as="geometry" />
        </mxCell>
        <mxCell id="3Y9sHF1bnUpzQe8AANxG-17" value="TIMESTAMP_NTZ" style="text;html=1;align=center;verticalAlign=middle;whiteSpace=wrap;rounded=0;labelBackgroundColor=none;fontColor=#FEFAE0;" vertex="1" parent="1">
          <mxGeometry x="560" y="722.2" width="170" height="30" as="geometry" />
        </mxCell>
        <mxCell id="3Y9sHF1bnUpzQe8AANxG-18" value="ORDER_ID" style="text;html=1;align=center;verticalAlign=middle;whiteSpace=wrap;rounded=0;labelBackgroundColor=none;fontColor=#FEFAE0;" vertex="1" parent="1">
          <mxGeometry x="340" y="302.2" width="160" height="30" as="geometry" />
        </mxCell>
        <mxCell id="3Y9sHF1bnUpzQe8AANxG-19" value="PRODUCT_ID" style="text;html=1;align=center;verticalAlign=middle;whiteSpace=wrap;rounded=0;labelBackgroundColor=none;fontColor=#FEFAE0;" vertex="1" parent="1">
          <mxGeometry x="340" y="332.2" width="160" height="30" as="geometry" />
        </mxCell>
        <mxCell id="3Y9sHF1bnUpzQe8AANxG-20" value="PRODUCT_NAME" style="text;html=1;align=center;verticalAlign=middle;whiteSpace=wrap;rounded=0;labelBackgroundColor=none;fontColor=#FEFAE0;" vertex="1" parent="1">
          <mxGeometry x="340" y="362.2" width="160" height="30" as="geometry" />
        </mxCell>
        <mxCell id="3Y9sHF1bnUpzQe8AANxG-21" value="CUSTOMER_ID" style="text;html=1;align=center;verticalAlign=middle;whiteSpace=wrap;rounded=0;labelBackgroundColor=none;fontColor=#FEFAE0;" vertex="1" parent="1">
          <mxGeometry x="340" y="392.2" width="160" height="30" as="geometry" />
        </mxCell>
        <mxCell id="3Y9sHF1bnUpzQe8AANxG-22" value="EMPLOYEE_ID" style="text;html=1;align=center;verticalAlign=middle;whiteSpace=wrap;rounded=0;labelBackgroundColor=none;fontColor=#FEFAE0;" vertex="1" parent="1">
          <mxGeometry x="340" y="422.2" width="160" height="30" as="geometry" />
        </mxCell>
        <mxCell id="3Y9sHF1bnUpzQe8AANxG-23" value="QUANTITY" style="text;html=1;align=center;verticalAlign=middle;whiteSpace=wrap;rounded=0;labelBackgroundColor=none;fontColor=#FEFAE0;" vertex="1" parent="1">
          <mxGeometry x="340" y="452.2" width="160" height="30" as="geometry" />
        </mxCell>
        <mxCell id="3Y9sHF1bnUpzQe8AANxG-24" value="UNIT_PRICE" style="text;html=1;align=center;verticalAlign=middle;whiteSpace=wrap;rounded=0;labelBackgroundColor=none;fontColor=#FEFAE0;" vertex="1" parent="1">
          <mxGeometry x="340" y="482.2" width="160" height="30" as="geometry" />
        </mxCell>
        <mxCell id="3Y9sHF1bnUpzQe8AANxG-25" value="DISCOUNT" style="text;html=1;align=center;verticalAlign=middle;whiteSpace=wrap;rounded=0;labelBackgroundColor=none;fontColor=#FEFAE0;" vertex="1" parent="1">
          <mxGeometry x="340" y="512.2" width="160" height="30" as="geometry" />
        </mxCell>
        <mxCell id="3Y9sHF1bnUpzQe8AANxG-26" value="STATUS_ID" style="text;html=1;align=center;verticalAlign=middle;whiteSpace=wrap;rounded=0;labelBackgroundColor=none;fontColor=#FEFAE0;" vertex="1" parent="1">
          <mxGeometry x="340" y="542.2" width="160" height="30" as="geometry" />
        </mxCell>
        <mxCell id="3Y9sHF1bnUpzQe8AANxG-27" value="DATE_ALLOCATED" style="text;html=1;align=center;verticalAlign=middle;whiteSpace=wrap;rounded=0;labelBackgroundColor=none;fontColor=#FEFAE0;" vertex="1" parent="1">
          <mxGeometry x="340" y="572.2" width="160" height="30" as="geometry" />
        </mxCell>
        <mxCell id="3Y9sHF1bnUpzQe8AANxG-28" value="PURCHASE_ORDER_ID" style="text;html=1;align=center;verticalAlign=middle;whiteSpace=wrap;rounded=0;labelBackgroundColor=none;fontColor=#FEFAE0;" vertex="1" parent="1">
          <mxGeometry x="340" y="602.2" width="160" height="30" as="geometry" />
        </mxCell>
        <mxCell id="3Y9sHF1bnUpzQe8AANxG-29" value="INVENTORY_ID" style="text;html=1;align=center;verticalAlign=middle;whiteSpace=wrap;rounded=0;labelBackgroundColor=none;fontColor=#FEFAE0;" vertex="1" parent="1">
          <mxGeometry x="340" y="632.2" width="160" height="30" as="geometry" />
        </mxCell>
        <mxCell id="3Y9sHF1bnUpzQe8AANxG-30" value="ORDER_DATE" style="text;html=1;align=center;verticalAlign=middle;whiteSpace=wrap;rounded=0;labelBackgroundColor=none;fontColor=#FEFAE0;" vertex="1" parent="1">
          <mxGeometry x="340" y="662.2" width="160" height="30" as="geometry" />
        </mxCell>
        <mxCell id="3Y9sHF1bnUpzQe8AANxG-31" value="SHIPPED_DATE" style="text;html=1;align=center;verticalAlign=middle;whiteSpace=wrap;rounded=0;labelBackgroundColor=none;fontColor=#FEFAE0;" vertex="1" parent="1">
          <mxGeometry x="340" y="692.2" width="160" height="30" as="geometry" />
        </mxCell>
        <mxCell id="3Y9sHF1bnUpzQe8AANxG-32" value="PAID_DATE" style="text;html=1;align=center;verticalAlign=middle;whiteSpace=wrap;rounded=0;labelBackgroundColor=none;fontColor=#FEFAE0;" vertex="1" parent="1">
          <mxGeometry x="340" y="722.2" width="160" height="30" as="geometry" />
        </mxCell>
        <mxCell id="3Y9sHF1bnUpzQe8AANxG-33" value="" style="endArrow=none;html=1;rounded=0;entryX=0.75;entryY=0;entryDx=0;entryDy=0;exitX=0.75;exitY=1;exitDx=0;exitDy=0;labelBackgroundColor=none;fontColor=default;strokeColor=#DDA15E;" edge="1" parent="1" source="3Y9sHF1bnUpzQe8AANxG-1" target="3Y9sHF1bnUpzQe8AANxG-1">
          <mxGeometry width="50" height="50" relative="1" as="geometry">
            <mxPoint x="303" y="822.2" as="sourcePoint" />
            <mxPoint x="303" y="272.2" as="targetPoint" />
          </mxGeometry>
        </mxCell>
        <mxCell id="3Y9sHF1bnUpzQe8AANxG-34" value="FK" style="text;html=1;align=center;verticalAlign=middle;whiteSpace=wrap;rounded=0;labelBackgroundColor=none;fontColor=#FEFAE0;" vertex="1" parent="1">
          <mxGeometry x="130" y="302.2" width="170" height="30" as="geometry" />
        </mxCell>
        <mxCell id="3Y9sHF1bnUpzQe8AANxG-35" value="FK" style="text;html=1;align=center;verticalAlign=middle;whiteSpace=wrap;rounded=0;labelBackgroundColor=none;fontColor=#FEFAE0;" vertex="1" parent="1">
          <mxGeometry x="130" y="332.2" width="170" height="30" as="geometry" />
        </mxCell>
        <mxCell id="3Y9sHF1bnUpzQe8AANxG-36" value="FK" style="text;html=1;align=center;verticalAlign=middle;whiteSpace=wrap;rounded=0;labelBackgroundColor=none;fontColor=#FEFAE0;" vertex="1" parent="1">
          <mxGeometry x="130" y="392.2" width="170" height="30" as="geometry" />
        </mxCell>
        <mxCell id="3Y9sHF1bnUpzQe8AANxG-37" value="FK" style="text;html=1;align=center;verticalAlign=middle;whiteSpace=wrap;rounded=0;labelBackgroundColor=none;fontColor=#FEFAE0;" vertex="1" parent="1">
          <mxGeometry x="130" y="422.2" width="170" height="30" as="geometry" />
        </mxCell>
        <mxCell id="3Y9sHF1bnUpzQe8AANxG-38" value="&lt;p style=&quot;margin:0px;margin-top:4px;text-align:center;&quot;&gt;&lt;b&gt;Fact_purcchae_order&lt;/b&gt;&lt;/p&gt;" style="verticalAlign=top;align=left;overflow=fill;html=1;whiteSpace=wrap;labelBackgroundColor=none;fillColor=#BC6C25;strokeColor=#DDA15E;fontColor=#FEFAE0;" vertex="1" parent="1">
          <mxGeometry x="170" y="-1536.6899999999998" width="550" height="827.8" as="geometry" />
        </mxCell>
        <mxCell id="3Y9sHF1bnUpzQe8AANxG-39" value="" style="endArrow=none;html=1;rounded=0;entryX=0.202;entryY=-0.004;entryDx=0;entryDy=0;exitX=0.195;exitY=0.996;exitDx=0;exitDy=0;entryPerimeter=0;exitPerimeter=0;labelBackgroundColor=none;fontColor=default;strokeColor=#DDA15E;" edge="1" parent="1" source="3Y9sHF1bnUpzQe8AANxG-38" target="3Y9sHF1bnUpzQe8AANxG-38">
          <mxGeometry width="50" height="50" relative="1" as="geometry">
            <mxPoint x="520" y="-1336.6899999999998" as="sourcePoint" />
            <mxPoint x="570" y="-1386.6899999999998" as="targetPoint" />
          </mxGeometry>
        </mxCell>
        <mxCell id="3Y9sHF1bnUpzQe8AANxG-40" value="VARCHAR" style="text;html=1;align=center;verticalAlign=middle;whiteSpace=wrap;rounded=0;labelBackgroundColor=none;fontColor=#FEFAE0;" vertex="1" parent="1">
          <mxGeometry x="1440" y="617.82" width="170" height="30" as="geometry" />
        </mxCell>
        <mxCell id="3Y9sHF1bnUpzQe8AANxG-41" value="NUMBER" style="text;html=1;align=center;verticalAlign=middle;whiteSpace=wrap;rounded=0;labelBackgroundColor=none;fontColor=#FEFAE0;" vertex="1" parent="1">
          <mxGeometry x="1440" y="647.82" width="170" height="30" as="geometry" />
        </mxCell>
        <mxCell id="3Y9sHF1bnUpzQe8AANxG-42" value="NUMBER" style="text;html=1;align=center;verticalAlign=middle;whiteSpace=wrap;rounded=0;labelBackgroundColor=none;fontColor=#FEFAE0;" vertex="1" parent="1">
          <mxGeometry x="1440" y="677.82" width="170" height="30" as="geometry" />
        </mxCell>
        <mxCell id="3Y9sHF1bnUpzQe8AANxG-43" value="NUMBER" style="text;html=1;align=center;verticalAlign=middle;whiteSpace=wrap;rounded=0;labelBackgroundColor=none;fontColor=#FEFAE0;" vertex="1" parent="1">
          <mxGeometry x="1440" y="707.82" width="170" height="30" as="geometry" />
        </mxCell>
        <mxCell id="3Y9sHF1bnUpzQe8AANxG-44" value="NUMBER" style="text;html=1;align=center;verticalAlign=middle;whiteSpace=wrap;rounded=0;labelBackgroundColor=none;fontColor=#FEFAE0;" vertex="1" parent="1">
          <mxGeometry x="1440" y="737.82" width="170" height="30" as="geometry" />
        </mxCell>
        <mxCell id="3Y9sHF1bnUpzQe8AANxG-45" value="NUMBER" style="text;html=1;align=center;verticalAlign=middle;whiteSpace=wrap;rounded=0;labelBackgroundColor=none;fontColor=#FEFAE0;" vertex="1" parent="1">
          <mxGeometry x="1440" y="767.82" width="170" height="30" as="geometry" />
        </mxCell>
        <mxCell id="3Y9sHF1bnUpzQe8AANxG-46" value="FLOAT" style="text;html=1;align=center;verticalAlign=middle;whiteSpace=wrap;rounded=0;labelBackgroundColor=none;fontColor=#FEFAE0;" vertex="1" parent="1">
          <mxGeometry x="1440" y="797.82" width="170" height="30" as="geometry" />
        </mxCell>
        <mxCell id="3Y9sHF1bnUpzQe8AANxG-47" value="TIMESTAMP_NTZ" style="text;html=1;align=center;verticalAlign=middle;whiteSpace=wrap;rounded=0;labelBackgroundColor=none;fontColor=#FEFAE0;" vertex="1" parent="1">
          <mxGeometry x="1440" y="827.82" width="170" height="30" as="geometry" />
        </mxCell>
        <mxCell id="3Y9sHF1bnUpzQe8AANxG-48" value="NUMBER" style="text;html=1;align=center;verticalAlign=middle;whiteSpace=wrap;rounded=0;labelBackgroundColor=none;fontColor=#FEFAE0;" vertex="1" parent="1">
          <mxGeometry x="1440" y="857.82" width="170" height="30" as="geometry" />
        </mxCell>
        <mxCell id="3Y9sHF1bnUpzQe8AANxG-49" value="NUMBER" style="text;html=1;align=center;verticalAlign=middle;whiteSpace=wrap;rounded=0;labelBackgroundColor=none;fontColor=#FEFAE0;" vertex="1" parent="1">
          <mxGeometry x="1440" y="887.82" width="170" height="30" as="geometry" />
        </mxCell>
        <mxCell id="3Y9sHF1bnUpzQe8AANxG-50" value="NUMBER" style="text;html=1;align=center;verticalAlign=middle;whiteSpace=wrap;rounded=0;labelBackgroundColor=none;fontColor=#FEFAE0;" vertex="1" parent="1">
          <mxGeometry x="1440" y="917.82" width="170" height="30" as="geometry" />
        </mxCell>
        <mxCell id="3Y9sHF1bnUpzQe8AANxG-51" value="NUMBER" style="text;html=1;align=center;verticalAlign=middle;whiteSpace=wrap;rounded=0;labelBackgroundColor=none;fontColor=#FEFAE0;" vertex="1" parent="1">
          <mxGeometry x="1440" y="947.82" width="170" height="30" as="geometry" />
        </mxCell>
        <mxCell id="3Y9sHF1bnUpzQe8AANxG-52" value="TIMESTAMP_NTZ" style="text;html=1;align=center;verticalAlign=middle;whiteSpace=wrap;rounded=0;labelBackgroundColor=none;fontColor=#FEFAE0;" vertex="1" parent="1">
          <mxGeometry x="1440" y="977.82" width="170" height="30" as="geometry" />
        </mxCell>
        <mxCell id="3Y9sHF1bnUpzQe8AANxG-53" value="TIMESTAMP_NTZ" style="text;html=1;align=center;verticalAlign=middle;whiteSpace=wrap;rounded=0;labelBackgroundColor=none;fontColor=#FEFAE0;" vertex="1" parent="1">
          <mxGeometry x="1440" y="1007.82" width="170" height="30" as="geometry" />
        </mxCell>
        <mxCell id="3Y9sHF1bnUpzQe8AANxG-54" value="TIMESTAMP_NTZ" style="text;html=1;align=center;verticalAlign=middle;whiteSpace=wrap;rounded=0;labelBackgroundColor=none;fontColor=#FEFAE0;" vertex="1" parent="1">
          <mxGeometry x="1440" y="1037.8200000000002" width="170" height="30" as="geometry" />
        </mxCell>
        <mxCell id="3Y9sHF1bnUpzQe8AANxG-55" value="UNIQUE_KEY" style="text;html=1;align=center;verticalAlign=middle;whiteSpace=wrap;rounded=0;labelBackgroundColor=none;fontColor=#FEFAE0;" vertex="1" parent="1">
          <mxGeometry x="350" y="-1496.6899999999998" width="160" height="30" as="geometry" />
        </mxCell>
        <mxCell id="3Y9sHF1bnUpzQe8AANxG-56" value="CUSTOMER_ID" style="text;html=1;align=center;verticalAlign=middle;whiteSpace=wrap;rounded=0;labelBackgroundColor=none;fontColor=#FEFAE0;" vertex="1" parent="1">
          <mxGeometry x="350" y="-1466.6899999999998" width="160" height="30" as="geometry" />
        </mxCell>
        <mxCell id="3Y9sHF1bnUpzQe8AANxG-57" value="EMPLOYEE_ID" style="text;html=1;align=center;verticalAlign=middle;whiteSpace=wrap;rounded=0;labelBackgroundColor=none;fontColor=#FEFAE0;" vertex="1" parent="1">
          <mxGeometry x="350" y="-1436.6899999999998" width="160" height="30" as="geometry" />
        </mxCell>
        <mxCell id="3Y9sHF1bnUpzQe8AANxG-58" value="PURCHASE_ORDER_ID" style="text;html=1;align=center;verticalAlign=middle;whiteSpace=wrap;rounded=0;labelBackgroundColor=none;fontColor=#FEFAE0;" vertex="1" parent="1">
          <mxGeometry x="350" y="-1406.6899999999998" width="160" height="30" as="geometry" />
        </mxCell>
        <mxCell id="3Y9sHF1bnUpzQe8AANxG-59" value="PRODUCT_ID" style="text;html=1;align=center;verticalAlign=middle;whiteSpace=wrap;rounded=0;labelBackgroundColor=none;fontColor=#FEFAE0;" vertex="1" parent="1">
          <mxGeometry x="350" y="-1376.6899999999998" width="160" height="30" as="geometry" />
        </mxCell>
        <mxCell id="3Y9sHF1bnUpzQe8AANxG-60" value="QUANTITY" style="text;html=1;align=center;verticalAlign=middle;whiteSpace=wrap;rounded=0;labelBackgroundColor=none;fontColor=#FEFAE0;" vertex="1" parent="1">
          <mxGeometry x="350" y="-1346.6899999999998" width="160" height="30" as="geometry" />
        </mxCell>
        <mxCell id="3Y9sHF1bnUpzQe8AANxG-61" value="UNIT_COST" style="text;html=1;align=center;verticalAlign=middle;whiteSpace=wrap;rounded=0;labelBackgroundColor=none;fontColor=#FEFAE0;" vertex="1" parent="1">
          <mxGeometry x="350" y="-1316.6899999999998" width="160" height="30" as="geometry" />
        </mxCell>
        <mxCell id="3Y9sHF1bnUpzQe8AANxG-62" value="DATE_RECEIVED" style="text;html=1;align=center;verticalAlign=middle;whiteSpace=wrap;rounded=0;labelBackgroundColor=none;fontColor=#FEFAE0;" vertex="1" parent="1">
          <mxGeometry x="350" y="-1286.6899999999998" width="160" height="30" as="geometry" />
        </mxCell>
        <mxCell id="3Y9sHF1bnUpzQe8AANxG-63" value="POSTED_TO_INVENTORY" style="text;html=1;align=center;verticalAlign=middle;whiteSpace=wrap;rounded=0;labelBackgroundColor=none;fontColor=#FEFAE0;" vertex="1" parent="1">
          <mxGeometry x="350" y="-1256.6899999999998" width="160" height="30" as="geometry" />
        </mxCell>
        <mxCell id="3Y9sHF1bnUpzQe8AANxG-64" value="INVENTORY_ID" style="text;html=1;align=center;verticalAlign=middle;whiteSpace=wrap;rounded=0;labelBackgroundColor=none;fontColor=#FEFAE0;" vertex="1" parent="1">
          <mxGeometry x="350" y="-1226.6899999999998" width="160" height="30" as="geometry" />
        </mxCell>
        <mxCell id="3Y9sHF1bnUpzQe8AANxG-65" value="SUPPLIER_ID" style="text;html=1;align=center;verticalAlign=middle;whiteSpace=wrap;rounded=0;labelBackgroundColor=none;fontColor=#FEFAE0;" vertex="1" parent="1">
          <mxGeometry x="350" y="-1196.6899999999998" width="160" height="30" as="geometry" />
        </mxCell>
        <mxCell id="3Y9sHF1bnUpzQe8AANxG-66" value="CREATED_BY" style="text;html=1;align=center;verticalAlign=middle;whiteSpace=wrap;rounded=0;labelBackgroundColor=none;fontColor=#FEFAE0;" vertex="1" parent="1">
          <mxGeometry x="350" y="-1166.6899999999998" width="160" height="30" as="geometry" />
        </mxCell>
        <mxCell id="3Y9sHF1bnUpzQe8AANxG-67" value="SUBMITTED_DATE" style="text;html=1;align=center;verticalAlign=middle;whiteSpace=wrap;rounded=0;labelBackgroundColor=none;fontColor=#FEFAE0;" vertex="1" parent="1">
          <mxGeometry x="350" y="-808.8900000000001" width="160" height="30" as="geometry" />
        </mxCell>
        <mxCell id="3Y9sHF1bnUpzQe8AANxG-68" value="STATUS_ID" style="text;html=1;align=center;verticalAlign=middle;whiteSpace=wrap;rounded=0;labelBackgroundColor=none;fontColor=#FEFAE0;" vertex="1" parent="1">
          <mxGeometry x="350" y="-1075.59" width="160" height="27.8" as="geometry" />
        </mxCell>
        <mxCell id="3Y9sHF1bnUpzQe8AANxG-69" value="" style="endArrow=none;html=1;rounded=0;entryX=0.75;entryY=0;entryDx=0;entryDy=0;exitX=0.75;exitY=1;exitDx=0;exitDy=0;labelBackgroundColor=none;fontColor=default;strokeColor=#DDA15E;" edge="1" parent="1" source="3Y9sHF1bnUpzQe8AANxG-38" target="3Y9sHF1bnUpzQe8AANxG-38">
          <mxGeometry width="50" height="50" relative="1" as="geometry">
            <mxPoint x="303" y="-976.6899999999998" as="sourcePoint" />
            <mxPoint x="303" y="-1526.6899999999998" as="targetPoint" />
          </mxGeometry>
        </mxCell>
        <mxCell id="3Y9sHF1bnUpzQe8AANxG-70" value="PK" style="text;html=1;align=center;verticalAlign=middle;whiteSpace=wrap;rounded=0;labelBackgroundColor=none;fontColor=#FEFAE0;" vertex="1" parent="1">
          <mxGeometry x="130" y="-1496.6899999999998" width="170" height="30" as="geometry" />
        </mxCell>
        <mxCell id="3Y9sHF1bnUpzQe8AANxG-71" value="EXPECTED_DATE" style="text;html=1;align=center;verticalAlign=middle;whiteSpace=wrap;rounded=0;labelBackgroundColor=none;fontColor=#FEFAE0;" vertex="1" parent="1">
          <mxGeometry x="350" y="-878.8900000000001" width="160" height="30" as="geometry" />
        </mxCell>
        <mxCell id="3Y9sHF1bnUpzQe8AANxG-72" value="SHIPPING_FEE" style="text;html=1;align=center;verticalAlign=middle;whiteSpace=wrap;rounded=0;labelBackgroundColor=none;fontColor=#FEFAE0;" vertex="1" parent="1">
          <mxGeometry x="350" y="-1016.6899999999998" width="160" height="30" as="geometry" />
        </mxCell>
        <mxCell id="3Y9sHF1bnUpzQe8AANxG-73" value="TAXES" style="text;html=1;align=center;verticalAlign=middle;whiteSpace=wrap;rounded=0;labelBackgroundColor=none;fontColor=#FEFAE0;" vertex="1" parent="1">
          <mxGeometry x="350" y="-1047.7899999999997" width="160" height="30" as="geometry" />
        </mxCell>
        <mxCell id="3Y9sHF1bnUpzQe8AANxG-74" value="PAYMENT_DATE" style="text;html=1;align=center;verticalAlign=middle;whiteSpace=wrap;rounded=0;labelBackgroundColor=none;fontColor=#FEFAE0;" vertex="1" parent="1">
          <mxGeometry x="350" y="-918.8900000000001" width="160" height="30" as="geometry" />
        </mxCell>
        <mxCell id="3Y9sHF1bnUpzQe8AANxG-75" value="PAYMENT_AMOUNT" style="text;html=1;align=center;verticalAlign=middle;whiteSpace=wrap;rounded=0;labelBackgroundColor=none;fontColor=#FEFAE0;" vertex="1" parent="1">
          <mxGeometry x="350" y="-986.6899999999998" width="160" height="30" as="geometry" />
        </mxCell>
        <mxCell id="3Y9sHF1bnUpzQe8AANxG-76" value="PAYMENT_METHOD" style="text;html=1;align=center;verticalAlign=middle;whiteSpace=wrap;rounded=0;labelBackgroundColor=none;fontColor=#FEFAE0;" vertex="1" parent="1">
          <mxGeometry x="350" y="-956.6899999999998" width="160" height="30" as="geometry" />
        </mxCell>
        <mxCell id="3Y9sHF1bnUpzQe8AANxG-77" value="APRROVED_BY" style="text;html=1;align=center;verticalAlign=middle;whiteSpace=wrap;rounded=0;labelBackgroundColor=none;fontColor=#FEFAE0;" vertex="1" parent="1">
          <mxGeometry x="350" y="-1139.89" width="160" height="30" as="geometry" />
        </mxCell>
        <mxCell id="3Y9sHF1bnUpzQe8AANxG-78" value="APRROVED_DATE" style="text;html=1;align=center;verticalAlign=middle;whiteSpace=wrap;rounded=0;labelBackgroundColor=none;fontColor=#FEFAE0;" vertex="1" parent="1">
          <mxGeometry x="350" y="-848.8900000000001" width="160" height="30" as="geometry" />
        </mxCell>
        <mxCell id="3Y9sHF1bnUpzQe8AANxG-79" value="SUBMITTED_BY" style="text;html=1;align=center;verticalAlign=middle;whiteSpace=wrap;rounded=0;labelBackgroundColor=none;fontColor=#FEFAE0;" vertex="1" parent="1">
          <mxGeometry x="350" y="-1106.6899999999998" width="160" height="30" as="geometry" />
        </mxCell>
        <mxCell id="3Y9sHF1bnUpzQe8AANxG-80" value="PAID_DATE" style="text;html=1;align=center;verticalAlign=middle;whiteSpace=wrap;rounded=0;labelBackgroundColor=none;fontColor=#FEFAE0;" vertex="1" parent="1">
          <mxGeometry x="350" y="-778.8900000000001" width="160" height="30" as="geometry" />
        </mxCell>
        <mxCell id="3Y9sHF1bnUpzQe8AANxG-81" value="TIMESTAMP_NTZ" style="text;html=1;align=center;verticalAlign=middle;whiteSpace=wrap;rounded=0;labelBackgroundColor=none;fontColor=#FEFAE0;" vertex="1" parent="1">
          <mxGeometry x="1440" y="1067.8200000000002" width="170" height="30" as="geometry" />
        </mxCell>
        <mxCell id="3Y9sHF1bnUpzQe8AANxG-82" value="TIMESTAMP_NTZ" style="text;html=1;align=center;verticalAlign=middle;whiteSpace=wrap;rounded=0;labelBackgroundColor=none;fontColor=#FEFAE0;" vertex="1" parent="1">
          <mxGeometry x="1440" y="1097.8200000000002" width="170" height="30" as="geometry" />
        </mxCell>
        <mxCell id="3Y9sHF1bnUpzQe8AANxG-83" value="TIMESTAMP_NTZ" style="text;html=1;align=center;verticalAlign=middle;whiteSpace=wrap;rounded=0;labelBackgroundColor=none;fontColor=#FEFAE0;" vertex="1" parent="1">
          <mxGeometry x="1440" y="1127.8200000000002" width="170" height="30" as="geometry" />
        </mxCell>
        <mxCell id="3Y9sHF1bnUpzQe8AANxG-84" value="TIMESTAMP_NTZ" style="text;html=1;align=center;verticalAlign=middle;whiteSpace=wrap;rounded=0;labelBackgroundColor=none;fontColor=#FEFAE0;" vertex="1" parent="1">
          <mxGeometry x="1440" y="1157.8200000000002" width="170" height="30" as="geometry" />
        </mxCell>
        <mxCell id="3Y9sHF1bnUpzQe8AANxG-85" value="TIMESTAMP_NTZ" style="text;html=1;align=center;verticalAlign=middle;whiteSpace=wrap;rounded=0;labelBackgroundColor=none;fontColor=#FEFAE0;" vertex="1" parent="1">
          <mxGeometry x="1440" y="1195.62" width="170" height="30" as="geometry" />
        </mxCell>
        <mxCell id="3Y9sHF1bnUpzQe8AANxG-86" value="TIMESTAMP_NTZ" style="text;html=1;align=center;verticalAlign=middle;whiteSpace=wrap;rounded=0;labelBackgroundColor=none;fontColor=#FEFAE0;" vertex="1" parent="1">
          <mxGeometry x="1440" y="1235.62" width="170" height="30" as="geometry" />
        </mxCell>
        <mxCell id="3Y9sHF1bnUpzQe8AANxG-87" value="TIMESTAMP_NTZ" style="text;html=1;align=center;verticalAlign=middle;whiteSpace=wrap;rounded=0;labelBackgroundColor=none;fontColor=#FEFAE0;" vertex="1" parent="1">
          <mxGeometry x="1440" y="1265.62" width="170" height="30" as="geometry" />
        </mxCell>
        <mxCell id="3Y9sHF1bnUpzQe8AANxG-88" value="TIMESTAMP_NTZ" style="text;html=1;align=center;verticalAlign=middle;whiteSpace=wrap;rounded=0;labelBackgroundColor=none;fontColor=#FEFAE0;" vertex="1" parent="1">
          <mxGeometry x="1340" y="1470" width="170" height="30" as="geometry" />
        </mxCell>
        <mxCell id="3Y9sHF1bnUpzQe8AANxG-89" value="TIMESTAMP_NTZ" style="text;html=1;align=center;verticalAlign=middle;whiteSpace=wrap;rounded=0;labelBackgroundColor=none;fontColor=#FEFAE0;" vertex="1" parent="1">
          <mxGeometry x="1340" y="1500" width="170" height="30" as="geometry" />
        </mxCell>
        <mxCell id="3Y9sHF1bnUpzQe8AANxG-90" value="FK" style="text;html=1;align=center;verticalAlign=middle;whiteSpace=wrap;rounded=0;labelBackgroundColor=none;fontColor=#FEFAE0;" vertex="1" parent="1">
          <mxGeometry x="130" y="-1466.6899999999998" width="170" height="30" as="geometry" />
        </mxCell>
        <mxCell id="3Y9sHF1bnUpzQe8AANxG-91" value="FK" style="text;html=1;align=center;verticalAlign=middle;whiteSpace=wrap;rounded=0;labelBackgroundColor=none;fontColor=#FEFAE0;" vertex="1" parent="1">
          <mxGeometry x="130" y="-1436.6899999999998" width="170" height="30" as="geometry" />
        </mxCell>
        <mxCell id="3Y9sHF1bnUpzQe8AANxG-92" value="FK" style="text;html=1;align=center;verticalAlign=middle;whiteSpace=wrap;rounded=0;labelBackgroundColor=none;fontColor=#FEFAE0;" vertex="1" parent="1">
          <mxGeometry x="130" y="-1376.6899999999998" width="170" height="30" as="geometry" />
        </mxCell>
        <mxCell id="3Y9sHF1bnUpzQe8AANxG-93" value="&lt;p style=&quot;margin:0px;margin-top:4px;text-align:center;&quot;&gt;&lt;b&gt;Fact_inventory&lt;/b&gt;&lt;/p&gt;" style="verticalAlign=top;align=left;overflow=fill;html=1;whiteSpace=wrap;labelBackgroundColor=none;fillColor=#BC6C25;strokeColor=#DDA15E;fontColor=#FEFAE0;" vertex="1" parent="1">
          <mxGeometry x="10" y="1441.54" width="550" height="468.46" as="geometry" />
        </mxCell>
        <mxCell id="3Y9sHF1bnUpzQe8AANxG-94" value="" style="endArrow=none;html=1;rounded=0;entryX=0.202;entryY=-0.004;entryDx=0;entryDy=0;exitX=0.195;exitY=0.996;exitDx=0;exitDy=0;entryPerimeter=0;exitPerimeter=0;labelBackgroundColor=none;fontColor=default;strokeColor=#DDA15E;" edge="1" parent="1" source="3Y9sHF1bnUpzQe8AANxG-93" target="3Y9sHF1bnUpzQe8AANxG-93">
          <mxGeometry width="50" height="50" relative="1" as="geometry">
            <mxPoint x="360" y="1641.54" as="sourcePoint" />
            <mxPoint x="410" y="1591.54" as="targetPoint" />
          </mxGeometry>
        </mxCell>
        <mxCell id="3Y9sHF1bnUpzQe8AANxG-95" value="NUMBER" style="text;html=1;align=center;verticalAlign=middle;whiteSpace=wrap;rounded=0;labelBackgroundColor=none;fontColor=#FEFAE0;" vertex="1" parent="1">
          <mxGeometry x="410" y="1481.54" width="170" height="30" as="geometry" />
        </mxCell>
        <mxCell id="3Y9sHF1bnUpzQe8AANxG-96" value="VARCHAR" style="text;html=1;align=center;verticalAlign=middle;whiteSpace=wrap;rounded=0;labelBackgroundColor=none;fontColor=#FEFAE0;" vertex="1" parent="1">
          <mxGeometry x="410" y="1511.54" width="170" height="30" as="geometry" />
        </mxCell>
        <mxCell id="3Y9sHF1bnUpzQe8AANxG-97" value="TIMESTAMP_NTZ" style="text;html=1;align=center;verticalAlign=middle;whiteSpace=wrap;rounded=0;labelBackgroundColor=none;fontColor=#FEFAE0;" vertex="1" parent="1">
          <mxGeometry x="410" y="1571.54" width="170" height="30" as="geometry" />
        </mxCell>
        <mxCell id="3Y9sHF1bnUpzQe8AANxG-98" value="NUMBER" style="text;html=1;align=center;verticalAlign=middle;whiteSpace=wrap;rounded=0;labelBackgroundColor=none;fontColor=#FEFAE0;" vertex="1" parent="1">
          <mxGeometry x="410" y="1601.54" width="170" height="30" as="geometry" />
        </mxCell>
        <mxCell id="3Y9sHF1bnUpzQe8AANxG-99" value="VARCHAR" style="text;html=1;align=center;verticalAlign=middle;whiteSpace=wrap;rounded=0;labelBackgroundColor=none;fontColor=#FEFAE0;" vertex="1" parent="1">
          <mxGeometry x="410" y="1631.54" width="170" height="30" as="geometry" />
        </mxCell>
        <mxCell id="3Y9sHF1bnUpzQe8AANxG-100" value="NUMBER" style="text;html=1;align=center;verticalAlign=middle;whiteSpace=wrap;rounded=0;labelBackgroundColor=none;fontColor=#FEFAE0;" vertex="1" parent="1">
          <mxGeometry x="410" y="1661.54" width="170" height="30" as="geometry" />
        </mxCell>
        <mxCell id="3Y9sHF1bnUpzQe8AANxG-101" value="NUMBER" style="text;html=1;align=center;verticalAlign=middle;whiteSpace=wrap;rounded=0;labelBackgroundColor=none;fontColor=#FEFAE0;" vertex="1" parent="1">
          <mxGeometry x="410" y="1691.54" width="170" height="30" as="geometry" />
        </mxCell>
        <mxCell id="3Y9sHF1bnUpzQe8AANxG-102" value="NUMBER" style="text;html=1;align=center;verticalAlign=middle;whiteSpace=wrap;rounded=0;labelBackgroundColor=none;fontColor=#FEFAE0;" vertex="1" parent="1">
          <mxGeometry x="410" y="1721.54" width="170" height="30" as="geometry" />
        </mxCell>
        <mxCell id="3Y9sHF1bnUpzQe8AANxG-103" value="NUMBER" style="text;html=1;align=center;verticalAlign=middle;whiteSpace=wrap;rounded=0;labelBackgroundColor=none;fontColor=#FEFAE0;" vertex="1" parent="1">
          <mxGeometry x="410" y="1751.54" width="170" height="30" as="geometry" />
        </mxCell>
        <mxCell id="3Y9sHF1bnUpzQe8AANxG-104" value="VARCCHAR" style="text;html=1;align=center;verticalAlign=middle;whiteSpace=wrap;rounded=0;labelBackgroundColor=none;fontColor=#FEFAE0;" vertex="1" parent="1">
          <mxGeometry x="410" y="1781.54" width="170" height="30" as="geometry" />
        </mxCell>
        <mxCell id="3Y9sHF1bnUpzQe8AANxG-105" value="INVENTORY_TRANSASCTION_ID" style="text;html=1;align=center;verticalAlign=middle;whiteSpace=wrap;rounded=0;labelBackgroundColor=none;fontColor=#FEFAE0;" vertex="1" parent="1">
          <mxGeometry x="190" y="1481.54" width="160" height="30" as="geometry" />
        </mxCell>
        <mxCell id="3Y9sHF1bnUpzQe8AANxG-106" value="TYPE_NAME" style="text;html=1;align=center;verticalAlign=middle;whiteSpace=wrap;rounded=0;labelBackgroundColor=none;fontColor=#FEFAE0;" vertex="1" parent="1">
          <mxGeometry x="190" y="1511.54" width="160" height="30" as="geometry" />
        </mxCell>
        <mxCell id="3Y9sHF1bnUpzQe8AANxG-107" value="TRANASCTION_CREATED_DATE" style="text;html=1;align=center;verticalAlign=middle;whiteSpace=wrap;rounded=0;labelBackgroundColor=none;fontColor=#FEFAE0;" vertex="1" parent="1">
          <mxGeometry x="190" y="1541.54" width="160" height="30" as="geometry" />
        </mxCell>
        <mxCell id="3Y9sHF1bnUpzQe8AANxG-108" value="TRANSACTION_MODIFIED_DATE" style="text;html=1;align=center;verticalAlign=middle;whiteSpace=wrap;rounded=0;labelBackgroundColor=none;fontColor=#FEFAE0;" vertex="1" parent="1">
          <mxGeometry x="190" y="1571.54" width="160" height="30" as="geometry" />
        </mxCell>
        <mxCell id="3Y9sHF1bnUpzQe8AANxG-109" value="PRODUCT_ID" style="text;html=1;align=center;verticalAlign=middle;whiteSpace=wrap;rounded=0;labelBackgroundColor=none;fontColor=#FEFAE0;" vertex="1" parent="1">
          <mxGeometry x="190" y="1601.54" width="160" height="30" as="geometry" />
        </mxCell>
        <mxCell id="3Y9sHF1bnUpzQe8AANxG-110" value="PRODUCT_NAME" style="text;html=1;align=center;verticalAlign=middle;whiteSpace=wrap;rounded=0;labelBackgroundColor=none;fontColor=#FEFAE0;" vertex="1" parent="1">
          <mxGeometry x="190" y="1631.54" width="160" height="30" as="geometry" />
        </mxCell>
        <mxCell id="3Y9sHF1bnUpzQe8AANxG-111" value="QUANTITY" style="text;html=1;align=center;verticalAlign=middle;whiteSpace=wrap;rounded=0;labelBackgroundColor=none;fontColor=#FEFAE0;" vertex="1" parent="1">
          <mxGeometry x="190" y="1661.54" width="160" height="30" as="geometry" />
        </mxCell>
        <mxCell id="3Y9sHF1bnUpzQe8AANxG-112" value="INVENTORY_PURCHASE_ORDER_ID" style="text;html=1;align=center;verticalAlign=middle;whiteSpace=wrap;rounded=0;labelBackgroundColor=none;fontColor=#FEFAE0;" vertex="1" parent="1">
          <mxGeometry x="190" y="1691.54" width="160" height="30" as="geometry" />
        </mxCell>
        <mxCell id="3Y9sHF1bnUpzQe8AANxG-113" value="PURCHASE_ORDER_ID" style="text;html=1;align=center;verticalAlign=middle;whiteSpace=wrap;rounded=0;labelBackgroundColor=none;fontColor=#FEFAE0;" vertex="1" parent="1">
          <mxGeometry x="190" y="1721.54" width="160" height="30" as="geometry" />
        </mxCell>
        <mxCell id="3Y9sHF1bnUpzQe8AANxG-114" value="CUSTOMER_ORDER_ID" style="text;html=1;align=center;verticalAlign=middle;whiteSpace=wrap;rounded=0;labelBackgroundColor=none;fontColor=#FEFAE0;" vertex="1" parent="1">
          <mxGeometry x="190" y="1751.54" width="160" height="30" as="geometry" />
        </mxCell>
        <mxCell id="3Y9sHF1bnUpzQe8AANxG-115" value="SUPPLIER_COMPANY" style="text;html=1;align=center;verticalAlign=middle;whiteSpace=wrap;rounded=0;labelBackgroundColor=none;fontColor=#FEFAE0;" vertex="1" parent="1">
          <mxGeometry x="190" y="1767.1999999999998" width="160" height="64.96" as="geometry" />
        </mxCell>
        <mxCell id="3Y9sHF1bnUpzQe8AANxG-116" value="" style="endArrow=none;html=1;rounded=0;entryX=0.75;entryY=0;entryDx=0;entryDy=0;exitX=0.75;exitY=1;exitDx=0;exitDy=0;labelBackgroundColor=none;fontColor=default;strokeColor=#DDA15E;" edge="1" parent="1" source="3Y9sHF1bnUpzQe8AANxG-93" target="3Y9sHF1bnUpzQe8AANxG-93">
          <mxGeometry width="50" height="50" relative="1" as="geometry">
            <mxPoint x="143" y="2001.54" as="sourcePoint" />
            <mxPoint x="143" y="1451.54" as="targetPoint" />
          </mxGeometry>
        </mxCell>
        <mxCell id="3Y9sHF1bnUpzQe8AANxG-117" value="TIMESTAMP_NTZ" style="text;html=1;align=center;verticalAlign=middle;whiteSpace=wrap;rounded=0;labelBackgroundColor=none;fontColor=#FEFAE0;" vertex="1" parent="1">
          <mxGeometry x="410" y="1541.54" width="170" height="30" as="geometry" />
        </mxCell>
        <mxCell id="3Y9sHF1bnUpzQe8AANxG-118" value="PK" style="text;html=1;align=center;verticalAlign=middle;whiteSpace=wrap;rounded=0;labelBackgroundColor=none;fontColor=#FEFAE0;" vertex="1" parent="1">
          <mxGeometry x="-2400" y="721.5400000000001" width="170" height="30" as="geometry" />
        </mxCell>
        <mxCell id="3Y9sHF1bnUpzQe8AANxG-119" value="FK" style="text;html=1;align=center;verticalAlign=middle;whiteSpace=wrap;rounded=0;labelBackgroundColor=none;fontColor=#FEFAE0;" vertex="1" parent="1">
          <mxGeometry x="-2400" y="841.5400000000001" width="170" height="30" as="geometry" />
        </mxCell>
        <mxCell id="3Y9sHF1bnUpzQe8AANxG-120" value="&lt;p style=&quot;margin:0px;margin-top:4px;text-align:center;&quot;&gt;&lt;b&gt;Dim_customer&lt;/b&gt;&lt;/p&gt;" style="verticalAlign=top;align=left;overflow=fill;html=1;whiteSpace=wrap;labelBackgroundColor=none;fillColor=#BC6C25;strokeColor=#DDA15E;fontColor=#FEFAE0;" vertex="1" parent="1">
          <mxGeometry x="-930" y="-537.6500000000001" width="550" height="588.46" as="geometry" />
        </mxCell>
        <mxCell id="3Y9sHF1bnUpzQe8AANxG-121" value="" style="endArrow=none;html=1;rounded=0;entryX=0.202;entryY=-0.004;entryDx=0;entryDy=0;exitX=0.195;exitY=0.996;exitDx=0;exitDy=0;entryPerimeter=0;exitPerimeter=0;labelBackgroundColor=none;fontColor=default;strokeColor=#DDA15E;" edge="1" parent="1" source="3Y9sHF1bnUpzQe8AANxG-120" target="3Y9sHF1bnUpzQe8AANxG-120">
          <mxGeometry width="50" height="50" relative="1" as="geometry">
            <mxPoint x="-580" y="-337.65" as="sourcePoint" />
            <mxPoint x="-530" y="-387.65" as="targetPoint" />
          </mxGeometry>
        </mxCell>
        <mxCell id="3Y9sHF1bnUpzQe8AANxG-122" value="NUMBER" style="text;html=1;align=center;verticalAlign=middle;whiteSpace=wrap;rounded=0;labelBackgroundColor=none;fontColor=#FEFAE0;" vertex="1" parent="1">
          <mxGeometry x="-530" y="-497.65" width="170" height="30" as="geometry" />
        </mxCell>
        <mxCell id="3Y9sHF1bnUpzQe8AANxG-123" value="VARCHAR" style="text;html=1;align=center;verticalAlign=middle;whiteSpace=wrap;rounded=0;labelBackgroundColor=none;fontColor=#FEFAE0;" vertex="1" parent="1">
          <mxGeometry x="-530" y="-467.65" width="170" height="30" as="geometry" />
        </mxCell>
        <mxCell id="3Y9sHF1bnUpzQe8AANxG-124" value="VARCHAR" style="text;html=1;align=center;verticalAlign=middle;whiteSpace=wrap;rounded=0;labelBackgroundColor=none;fontColor=#FEFAE0;" vertex="1" parent="1">
          <mxGeometry x="-530" y="-407.65" width="170" height="30" as="geometry" />
        </mxCell>
        <mxCell id="3Y9sHF1bnUpzQe8AANxG-125" value="VARCHAR" style="text;html=1;align=center;verticalAlign=middle;whiteSpace=wrap;rounded=0;labelBackgroundColor=none;fontColor=#FEFAE0;" vertex="1" parent="1">
          <mxGeometry x="-530" y="-377.65" width="170" height="30" as="geometry" />
        </mxCell>
        <mxCell id="3Y9sHF1bnUpzQe8AANxG-126" value="VARCHAR" style="text;html=1;align=center;verticalAlign=middle;whiteSpace=wrap;rounded=0;labelBackgroundColor=none;fontColor=#FEFAE0;" vertex="1" parent="1">
          <mxGeometry x="-530" y="-347.65" width="170" height="30" as="geometry" />
        </mxCell>
        <mxCell id="3Y9sHF1bnUpzQe8AANxG-127" value="VARCHAR" style="text;html=1;align=center;verticalAlign=middle;whiteSpace=wrap;rounded=0;labelBackgroundColor=none;fontColor=#FEFAE0;" vertex="1" parent="1">
          <mxGeometry x="-530" y="-317.65" width="170" height="30" as="geometry" />
        </mxCell>
        <mxCell id="3Y9sHF1bnUpzQe8AANxG-128" value="VARCHAR" style="text;html=1;align=center;verticalAlign=middle;whiteSpace=wrap;rounded=0;labelBackgroundColor=none;fontColor=#FEFAE0;" vertex="1" parent="1">
          <mxGeometry x="-530" y="-287.65" width="170" height="30" as="geometry" />
        </mxCell>
        <mxCell id="3Y9sHF1bnUpzQe8AANxG-129" value="VARCHAR" style="text;html=1;align=center;verticalAlign=middle;whiteSpace=wrap;rounded=0;labelBackgroundColor=none;fontColor=#FEFAE0;" vertex="1" parent="1">
          <mxGeometry x="-530" y="-257.65" width="170" height="30" as="geometry" />
        </mxCell>
        <mxCell id="3Y9sHF1bnUpzQe8AANxG-130" value="VARCHAR" style="text;html=1;align=center;verticalAlign=middle;whiteSpace=wrap;rounded=0;labelBackgroundColor=none;fontColor=#FEFAE0;" vertex="1" parent="1">
          <mxGeometry x="-530" y="-227.64999999999998" width="170" height="30" as="geometry" />
        </mxCell>
        <mxCell id="3Y9sHF1bnUpzQe8AANxG-131" value="VARCHAR" style="text;html=1;align=center;verticalAlign=middle;whiteSpace=wrap;rounded=0;labelBackgroundColor=none;fontColor=#FEFAE0;" vertex="1" parent="1">
          <mxGeometry x="-530" y="-197.6500000000001" width="170" height="30" as="geometry" />
        </mxCell>
        <mxCell id="3Y9sHF1bnUpzQe8AANxG-132" value="CUSTOMER_ID" style="text;html=1;align=center;verticalAlign=middle;whiteSpace=wrap;rounded=0;labelBackgroundColor=none;fontColor=#FEFAE0;" vertex="1" parent="1">
          <mxGeometry x="-750" y="-497.65" width="160" height="30" as="geometry" />
        </mxCell>
        <mxCell id="3Y9sHF1bnUpzQe8AANxG-133" value="COMPANY_NAME" style="text;html=1;align=center;verticalAlign=middle;whiteSpace=wrap;rounded=0;labelBackgroundColor=none;fontColor=#FEFAE0;" vertex="1" parent="1">
          <mxGeometry x="-750" y="-467.65" width="160" height="30" as="geometry" />
        </mxCell>
        <mxCell id="3Y9sHF1bnUpzQe8AANxG-134" value="LAST_NAME" style="text;html=1;align=center;verticalAlign=middle;whiteSpace=wrap;rounded=0;labelBackgroundColor=none;fontColor=#FEFAE0;" vertex="1" parent="1">
          <mxGeometry x="-750" y="-437.65" width="160" height="30" as="geometry" />
        </mxCell>
        <mxCell id="3Y9sHF1bnUpzQe8AANxG-135" value="FIRST_NAME" style="text;html=1;align=center;verticalAlign=middle;whiteSpace=wrap;rounded=0;labelBackgroundColor=none;fontColor=#FEFAE0;" vertex="1" parent="1">
          <mxGeometry x="-750" y="-407.65" width="160" height="30" as="geometry" />
        </mxCell>
        <mxCell id="3Y9sHF1bnUpzQe8AANxG-136" value="EMAIL" style="text;html=1;align=center;verticalAlign=middle;whiteSpace=wrap;rounded=0;labelBackgroundColor=none;fontColor=#FEFAE0;" vertex="1" parent="1">
          <mxGeometry x="-750" y="-377.65" width="160" height="30" as="geometry" />
        </mxCell>
        <mxCell id="3Y9sHF1bnUpzQe8AANxG-137" value="JOB_TITLE" style="text;html=1;align=center;verticalAlign=middle;whiteSpace=wrap;rounded=0;labelBackgroundColor=none;fontColor=#FEFAE0;" vertex="1" parent="1">
          <mxGeometry x="-750" y="-347.65" width="160" height="30" as="geometry" />
        </mxCell>
        <mxCell id="3Y9sHF1bnUpzQe8AANxG-138" value="BUSINESS_PHONE" style="text;html=1;align=center;verticalAlign=middle;whiteSpace=wrap;rounded=0;labelBackgroundColor=none;fontColor=#FEFAE0;" vertex="1" parent="1">
          <mxGeometry x="-750" y="-317.65" width="160" height="30" as="geometry" />
        </mxCell>
        <mxCell id="3Y9sHF1bnUpzQe8AANxG-139" value="HOME_PHONE" style="text;html=1;align=center;verticalAlign=middle;whiteSpace=wrap;rounded=0;labelBackgroundColor=none;fontColor=#FEFAE0;" vertex="1" parent="1">
          <mxGeometry x="-750" y="-287.65" width="160" height="30" as="geometry" />
        </mxCell>
        <mxCell id="3Y9sHF1bnUpzQe8AANxG-140" value="MOBILE_PHONE" style="text;html=1;align=center;verticalAlign=middle;whiteSpace=wrap;rounded=0;labelBackgroundColor=none;fontColor=#FEFAE0;" vertex="1" parent="1">
          <mxGeometry x="-750" y="-257.65" width="160" height="30" as="geometry" />
        </mxCell>
        <mxCell id="3Y9sHF1bnUpzQe8AANxG-141" value="FAX_NUMBER" style="text;html=1;align=center;verticalAlign=middle;whiteSpace=wrap;rounded=0;labelBackgroundColor=none;fontColor=#FEFAE0;" vertex="1" parent="1">
          <mxGeometry x="-750" y="-227.64999999999998" width="160" height="30" as="geometry" />
        </mxCell>
        <mxCell id="3Y9sHF1bnUpzQe8AANxG-142" value="" style="endArrow=none;html=1;rounded=0;entryX=0.75;entryY=0;entryDx=0;entryDy=0;exitX=0.75;exitY=1;exitDx=0;exitDy=0;labelBackgroundColor=none;fontColor=default;strokeColor=#DDA15E;" edge="1" parent="1" source="3Y9sHF1bnUpzQe8AANxG-120" target="3Y9sHF1bnUpzQe8AANxG-120">
          <mxGeometry width="50" height="50" relative="1" as="geometry">
            <mxPoint x="-797" y="22.34999999999991" as="sourcePoint" />
            <mxPoint x="-797" y="-527.65" as="targetPoint" />
          </mxGeometry>
        </mxCell>
        <mxCell id="3Y9sHF1bnUpzQe8AANxG-143" value="VARCHAR" style="text;html=1;align=center;verticalAlign=middle;whiteSpace=wrap;rounded=0;labelBackgroundColor=none;fontColor=#FEFAE0;" vertex="1" parent="1">
          <mxGeometry x="-530" y="-437.65" width="170" height="30" as="geometry" />
        </mxCell>
        <mxCell id="3Y9sHF1bnUpzQe8AANxG-144" value="PK" style="text;html=1;align=center;verticalAlign=middle;whiteSpace=wrap;rounded=0;labelBackgroundColor=none;fontColor=#FEFAE0;" vertex="1" parent="1">
          <mxGeometry x="-970" y="-497.65" width="170" height="30" as="geometry" />
        </mxCell>
        <mxCell id="3Y9sHF1bnUpzQe8AANxG-145" value="ADDRESS" style="text;html=1;align=center;verticalAlign=middle;whiteSpace=wrap;rounded=0;labelBackgroundColor=none;fontColor=#FEFAE0;" vertex="1" parent="1">
          <mxGeometry x="-750" y="-197.64999999999998" width="160" height="30" as="geometry" />
        </mxCell>
        <mxCell id="3Y9sHF1bnUpzQe8AANxG-146" value="CITY" style="text;html=1;align=center;verticalAlign=middle;whiteSpace=wrap;rounded=0;labelBackgroundColor=none;fontColor=#FEFAE0;" vertex="1" parent="1">
          <mxGeometry x="-750" y="-167.64999999999998" width="160" height="30" as="geometry" />
        </mxCell>
        <mxCell id="3Y9sHF1bnUpzQe8AANxG-147" value="STATE_PROVINCE" style="text;html=1;align=center;verticalAlign=middle;whiteSpace=wrap;rounded=0;labelBackgroundColor=none;fontColor=#FEFAE0;" vertex="1" parent="1">
          <mxGeometry x="-750" y="-137.64999999999998" width="160" height="30" as="geometry" />
        </mxCell>
        <mxCell id="3Y9sHF1bnUpzQe8AANxG-148" value="ZIP_POSTAL_CODE" style="text;html=1;align=center;verticalAlign=middle;whiteSpace=wrap;rounded=0;labelBackgroundColor=none;fontColor=#FEFAE0;" vertex="1" parent="1">
          <mxGeometry x="-750" y="-107.64999999999998" width="160" height="30" as="geometry" />
        </mxCell>
        <mxCell id="3Y9sHF1bnUpzQe8AANxG-149" value="COUNTRY_REGION" style="text;html=1;align=center;verticalAlign=middle;whiteSpace=wrap;rounded=0;labelBackgroundColor=none;fontColor=#FEFAE0;" vertex="1" parent="1">
          <mxGeometry x="-750" y="-79.18999999999994" width="160" height="30" as="geometry" />
        </mxCell>
        <mxCell id="3Y9sHF1bnUpzQe8AANxG-150" value="WEB_PAGE_INFORMATION" style="text;html=1;align=center;verticalAlign=middle;whiteSpace=wrap;rounded=0;labelBackgroundColor=none;fontColor=#FEFAE0;" vertex="1" parent="1">
          <mxGeometry x="-750" y="-49.18999999999994" width="160" height="30" as="geometry" />
        </mxCell>
        <mxCell id="3Y9sHF1bnUpzQe8AANxG-151" value="NOTES_INFORMATION" style="text;html=1;align=center;verticalAlign=middle;whiteSpace=wrap;rounded=0;labelBackgroundColor=none;fontColor=#FEFAE0;" vertex="1" parent="1">
          <mxGeometry x="-750" y="-19.18999999999994" width="160" height="30" as="geometry" />
        </mxCell>
        <mxCell id="3Y9sHF1bnUpzQe8AANxG-152" value="ATTACHMENTS_INFORMATION" style="text;html=1;align=center;verticalAlign=middle;whiteSpace=wrap;rounded=0;labelBackgroundColor=none;fontColor=#FEFAE0;" vertex="1" parent="1">
          <mxGeometry x="-750" y="10.81000000000006" width="160" height="30" as="geometry" />
        </mxCell>
        <mxCell id="3Y9sHF1bnUpzQe8AANxG-153" value="VARCHAR" style="text;html=1;align=center;verticalAlign=middle;whiteSpace=wrap;rounded=0;labelBackgroundColor=none;fontColor=#FEFAE0;" vertex="1" parent="1">
          <mxGeometry x="-530" y="-167.6500000000001" width="170" height="30" as="geometry" />
        </mxCell>
        <mxCell id="3Y9sHF1bnUpzQe8AANxG-154" value="VARCHAR" style="text;html=1;align=center;verticalAlign=middle;whiteSpace=wrap;rounded=0;labelBackgroundColor=none;fontColor=#FEFAE0;" vertex="1" parent="1">
          <mxGeometry x="-530" y="-137.6500000000001" width="170" height="30" as="geometry" />
        </mxCell>
        <mxCell id="3Y9sHF1bnUpzQe8AANxG-155" value="NUMBER" style="text;html=1;align=center;verticalAlign=middle;whiteSpace=wrap;rounded=0;labelBackgroundColor=none;fontColor=#FEFAE0;" vertex="1" parent="1">
          <mxGeometry x="-530" y="-107.65000000000009" width="170" height="30" as="geometry" />
        </mxCell>
        <mxCell id="3Y9sHF1bnUpzQe8AANxG-156" value="VARCHAR" style="text;html=1;align=center;verticalAlign=middle;whiteSpace=wrap;rounded=0;labelBackgroundColor=none;fontColor=#FEFAE0;" vertex="1" parent="1">
          <mxGeometry x="-530" y="-77.65000000000009" width="170" height="30" as="geometry" />
        </mxCell>
        <mxCell id="3Y9sHF1bnUpzQe8AANxG-157" value="VARCHAR" style="text;html=1;align=center;verticalAlign=middle;whiteSpace=wrap;rounded=0;labelBackgroundColor=none;fontColor=#FEFAE0;" vertex="1" parent="1">
          <mxGeometry x="-530" y="-49.190000000000055" width="170" height="30" as="geometry" />
        </mxCell>
        <mxCell id="3Y9sHF1bnUpzQe8AANxG-158" value="VARCHAR" style="text;html=1;align=center;verticalAlign=middle;whiteSpace=wrap;rounded=0;labelBackgroundColor=none;fontColor=#FEFAE0;" vertex="1" parent="1">
          <mxGeometry x="-530" y="-19.190000000000055" width="170" height="30" as="geometry" />
        </mxCell>
        <mxCell id="3Y9sHF1bnUpzQe8AANxG-159" value="VARCHAR" style="text;html=1;align=center;verticalAlign=middle;whiteSpace=wrap;rounded=0;labelBackgroundColor=none;fontColor=#FEFAE0;" vertex="1" parent="1">
          <mxGeometry x="-530" y="10.809999999999945" width="170" height="30" as="geometry" />
        </mxCell>
        <mxCell id="3Y9sHF1bnUpzQe8AANxG-160" value="&lt;p style=&quot;margin:0px;margin-top:4px;text-align:center;&quot;&gt;&lt;b&gt;Dim_Employees&lt;/b&gt;&lt;/p&gt;" style="verticalAlign=top;align=left;overflow=fill;html=1;whiteSpace=wrap;labelBackgroundColor=none;fillColor=#BC6C25;strokeColor=#DDA15E;fontColor=#FEFAE0;" vertex="1" parent="1">
          <mxGeometry x="1110" y="-497.6500000000001" width="550" height="588.46" as="geometry" />
        </mxCell>
        <mxCell id="3Y9sHF1bnUpzQe8AANxG-161" value="" style="endArrow=none;html=1;rounded=0;entryX=0.202;entryY=-0.004;entryDx=0;entryDy=0;exitX=0.195;exitY=0.996;exitDx=0;exitDy=0;entryPerimeter=0;exitPerimeter=0;labelBackgroundColor=none;fontColor=default;strokeColor=#DDA15E;" edge="1" parent="1" source="3Y9sHF1bnUpzQe8AANxG-160" target="3Y9sHF1bnUpzQe8AANxG-160">
          <mxGeometry width="50" height="50" relative="1" as="geometry">
            <mxPoint x="1460" y="-297.65" as="sourcePoint" />
            <mxPoint x="1510" y="-347.65" as="targetPoint" />
          </mxGeometry>
        </mxCell>
        <mxCell id="3Y9sHF1bnUpzQe8AANxG-162" value="NUMBER" style="text;html=1;align=center;verticalAlign=middle;whiteSpace=wrap;rounded=0;labelBackgroundColor=none;fontColor=#FEFAE0;" vertex="1" parent="1">
          <mxGeometry x="1510" y="-457.65" width="170" height="30" as="geometry" />
        </mxCell>
        <mxCell id="3Y9sHF1bnUpzQe8AANxG-163" value="VARCHAR" style="text;html=1;align=center;verticalAlign=middle;whiteSpace=wrap;rounded=0;labelBackgroundColor=none;fontColor=#FEFAE0;" vertex="1" parent="1">
          <mxGeometry x="1510" y="-427.65" width="170" height="30" as="geometry" />
        </mxCell>
        <mxCell id="3Y9sHF1bnUpzQe8AANxG-164" value="VARCHAR" style="text;html=1;align=center;verticalAlign=middle;whiteSpace=wrap;rounded=0;labelBackgroundColor=none;fontColor=#FEFAE0;" vertex="1" parent="1">
          <mxGeometry x="1510" y="-367.65" width="170" height="30" as="geometry" />
        </mxCell>
        <mxCell id="3Y9sHF1bnUpzQe8AANxG-165" value="VARCHAR" style="text;html=1;align=center;verticalAlign=middle;whiteSpace=wrap;rounded=0;labelBackgroundColor=none;fontColor=#FEFAE0;" vertex="1" parent="1">
          <mxGeometry x="1510" y="-337.65" width="170" height="30" as="geometry" />
        </mxCell>
        <mxCell id="3Y9sHF1bnUpzQe8AANxG-166" value="VARCHAR" style="text;html=1;align=center;verticalAlign=middle;whiteSpace=wrap;rounded=0;labelBackgroundColor=none;fontColor=#FEFAE0;" vertex="1" parent="1">
          <mxGeometry x="1510" y="-307.65" width="170" height="30" as="geometry" />
        </mxCell>
        <mxCell id="3Y9sHF1bnUpzQe8AANxG-167" value="VARCHAR" style="text;html=1;align=center;verticalAlign=middle;whiteSpace=wrap;rounded=0;labelBackgroundColor=none;fontColor=#FEFAE0;" vertex="1" parent="1">
          <mxGeometry x="1510" y="-277.65" width="170" height="30" as="geometry" />
        </mxCell>
        <mxCell id="3Y9sHF1bnUpzQe8AANxG-168" value="VARCHAR" style="text;html=1;align=center;verticalAlign=middle;whiteSpace=wrap;rounded=0;labelBackgroundColor=none;fontColor=#FEFAE0;" vertex="1" parent="1">
          <mxGeometry x="1510" y="-247.64999999999998" width="170" height="30" as="geometry" />
        </mxCell>
        <mxCell id="3Y9sHF1bnUpzQe8AANxG-169" value="VARCHAR" style="text;html=1;align=center;verticalAlign=middle;whiteSpace=wrap;rounded=0;labelBackgroundColor=none;fontColor=#FEFAE0;" vertex="1" parent="1">
          <mxGeometry x="1510" y="-217.64999999999998" width="170" height="30" as="geometry" />
        </mxCell>
        <mxCell id="3Y9sHF1bnUpzQe8AANxG-170" value="VARCHAR" style="text;html=1;align=center;verticalAlign=middle;whiteSpace=wrap;rounded=0;labelBackgroundColor=none;fontColor=#FEFAE0;" vertex="1" parent="1">
          <mxGeometry x="1510" y="-187.64999999999998" width="170" height="30" as="geometry" />
        </mxCell>
        <mxCell id="3Y9sHF1bnUpzQe8AANxG-171" value="VARCHAR" style="text;html=1;align=center;verticalAlign=middle;whiteSpace=wrap;rounded=0;labelBackgroundColor=none;fontColor=#FEFAE0;" vertex="1" parent="1">
          <mxGeometry x="1510" y="-157.6500000000001" width="170" height="30" as="geometry" />
        </mxCell>
        <mxCell id="3Y9sHF1bnUpzQe8AANxG-172" value="EMPLOYEE_ID" style="text;html=1;align=center;verticalAlign=middle;whiteSpace=wrap;rounded=0;labelBackgroundColor=none;fontColor=#FEFAE0;" vertex="1" parent="1">
          <mxGeometry x="1290" y="-457.65" width="160" height="30" as="geometry" />
        </mxCell>
        <mxCell id="3Y9sHF1bnUpzQe8AANxG-173" value="COMPANY_NAME" style="text;html=1;align=center;verticalAlign=middle;whiteSpace=wrap;rounded=0;labelBackgroundColor=none;fontColor=#FEFAE0;" vertex="1" parent="1">
          <mxGeometry x="1290" y="-427.65" width="160" height="30" as="geometry" />
        </mxCell>
        <mxCell id="3Y9sHF1bnUpzQe8AANxG-174" value="LAST_NAME" style="text;html=1;align=center;verticalAlign=middle;whiteSpace=wrap;rounded=0;labelBackgroundColor=none;fontColor=#FEFAE0;" vertex="1" parent="1">
          <mxGeometry x="1290" y="-397.65" width="160" height="30" as="geometry" />
        </mxCell>
        <mxCell id="3Y9sHF1bnUpzQe8AANxG-175" value="FIRST_NAME" style="text;html=1;align=center;verticalAlign=middle;whiteSpace=wrap;rounded=0;labelBackgroundColor=none;fontColor=#FEFAE0;" vertex="1" parent="1">
          <mxGeometry x="1290" y="-367.65" width="160" height="30" as="geometry" />
        </mxCell>
        <mxCell id="3Y9sHF1bnUpzQe8AANxG-176" value="EMAIL" style="text;html=1;align=center;verticalAlign=middle;whiteSpace=wrap;rounded=0;labelBackgroundColor=none;fontColor=#FEFAE0;" vertex="1" parent="1">
          <mxGeometry x="1290" y="-337.65" width="160" height="30" as="geometry" />
        </mxCell>
        <mxCell id="3Y9sHF1bnUpzQe8AANxG-177" value="JOB_TITLE" style="text;html=1;align=center;verticalAlign=middle;whiteSpace=wrap;rounded=0;labelBackgroundColor=none;fontColor=#FEFAE0;" vertex="1" parent="1">
          <mxGeometry x="1290" y="-307.65" width="160" height="30" as="geometry" />
        </mxCell>
        <mxCell id="3Y9sHF1bnUpzQe8AANxG-178" value="BUSINESS_PHONE" style="text;html=1;align=center;verticalAlign=middle;whiteSpace=wrap;rounded=0;labelBackgroundColor=none;fontColor=#FEFAE0;" vertex="1" parent="1">
          <mxGeometry x="1290" y="-277.65" width="160" height="30" as="geometry" />
        </mxCell>
        <mxCell id="3Y9sHF1bnUpzQe8AANxG-179" value="HOME_PHONE" style="text;html=1;align=center;verticalAlign=middle;whiteSpace=wrap;rounded=0;labelBackgroundColor=none;fontColor=#FEFAE0;" vertex="1" parent="1">
          <mxGeometry x="1290" y="-247.64999999999998" width="160" height="30" as="geometry" />
        </mxCell>
        <mxCell id="3Y9sHF1bnUpzQe8AANxG-180" value="MOBILE_PHONE" style="text;html=1;align=center;verticalAlign=middle;whiteSpace=wrap;rounded=0;labelBackgroundColor=none;fontColor=#FEFAE0;" vertex="1" parent="1">
          <mxGeometry x="1290" y="-217.64999999999998" width="160" height="30" as="geometry" />
        </mxCell>
        <mxCell id="3Y9sHF1bnUpzQe8AANxG-181" value="FAX_NUMBER" style="text;html=1;align=center;verticalAlign=middle;whiteSpace=wrap;rounded=0;labelBackgroundColor=none;fontColor=#FEFAE0;" vertex="1" parent="1">
          <mxGeometry x="1290" y="-187.64999999999998" width="160" height="30" as="geometry" />
        </mxCell>
        <mxCell id="3Y9sHF1bnUpzQe8AANxG-182" value="" style="endArrow=none;html=1;rounded=0;entryX=0.75;entryY=0;entryDx=0;entryDy=0;exitX=0.75;exitY=1;exitDx=0;exitDy=0;labelBackgroundColor=none;fontColor=default;strokeColor=#DDA15E;" edge="1" parent="1" source="3Y9sHF1bnUpzQe8AANxG-160" target="3Y9sHF1bnUpzQe8AANxG-160">
          <mxGeometry width="50" height="50" relative="1" as="geometry">
            <mxPoint x="1243" y="62.34999999999991" as="sourcePoint" />
            <mxPoint x="1243" y="-487.65" as="targetPoint" />
          </mxGeometry>
        </mxCell>
        <mxCell id="3Y9sHF1bnUpzQe8AANxG-183" value="VARCHAR" style="text;html=1;align=center;verticalAlign=middle;whiteSpace=wrap;rounded=0;labelBackgroundColor=none;fontColor=#FEFAE0;" vertex="1" parent="1">
          <mxGeometry x="1510" y="-397.65" width="170" height="30" as="geometry" />
        </mxCell>
        <mxCell id="3Y9sHF1bnUpzQe8AANxG-184" value="ADDRESS" style="text;html=1;align=center;verticalAlign=middle;whiteSpace=wrap;rounded=0;labelBackgroundColor=none;fontColor=#FEFAE0;" vertex="1" parent="1">
          <mxGeometry x="1290" y="-157.64999999999998" width="160" height="30" as="geometry" />
        </mxCell>
        <mxCell id="3Y9sHF1bnUpzQe8AANxG-185" value="CITY" style="text;html=1;align=center;verticalAlign=middle;whiteSpace=wrap;rounded=0;labelBackgroundColor=none;fontColor=#FEFAE0;" vertex="1" parent="1">
          <mxGeometry x="1290" y="-127.64999999999998" width="160" height="30" as="geometry" />
        </mxCell>
        <mxCell id="3Y9sHF1bnUpzQe8AANxG-186" value="STATE_PROVINCE" style="text;html=1;align=center;verticalAlign=middle;whiteSpace=wrap;rounded=0;labelBackgroundColor=none;fontColor=#FEFAE0;" vertex="1" parent="1">
          <mxGeometry x="1290" y="-97.64999999999998" width="160" height="30" as="geometry" />
        </mxCell>
        <mxCell id="3Y9sHF1bnUpzQe8AANxG-187" value="ZIP_POSTAL_CODE" style="text;html=1;align=center;verticalAlign=middle;whiteSpace=wrap;rounded=0;labelBackgroundColor=none;fontColor=#FEFAE0;" vertex="1" parent="1">
          <mxGeometry x="1290" y="-67.64999999999998" width="160" height="30" as="geometry" />
        </mxCell>
        <mxCell id="3Y9sHF1bnUpzQe8AANxG-188" value="COUNTRY_REGION" style="text;html=1;align=center;verticalAlign=middle;whiteSpace=wrap;rounded=0;labelBackgroundColor=none;fontColor=#FEFAE0;" vertex="1" parent="1">
          <mxGeometry x="1290" y="-39.18999999999994" width="160" height="30" as="geometry" />
        </mxCell>
        <mxCell id="3Y9sHF1bnUpzQe8AANxG-189" value="WEB_PAGE_INFORMATION" style="text;html=1;align=center;verticalAlign=middle;whiteSpace=wrap;rounded=0;labelBackgroundColor=none;fontColor=#FEFAE0;" vertex="1" parent="1">
          <mxGeometry x="1290" y="-9.18999999999994" width="160" height="30" as="geometry" />
        </mxCell>
        <mxCell id="3Y9sHF1bnUpzQe8AANxG-190" value="NOTES_INFORMATION" style="text;html=1;align=center;verticalAlign=middle;whiteSpace=wrap;rounded=0;labelBackgroundColor=none;fontColor=#FEFAE0;" vertex="1" parent="1">
          <mxGeometry x="1290" y="20.81000000000006" width="160" height="30" as="geometry" />
        </mxCell>
        <mxCell id="3Y9sHF1bnUpzQe8AANxG-191" value="ATTACHMENTS_INFORMATION" style="text;html=1;align=center;verticalAlign=middle;whiteSpace=wrap;rounded=0;labelBackgroundColor=none;fontColor=#FEFAE0;" vertex="1" parent="1">
          <mxGeometry x="1290" y="50.81000000000006" width="160" height="30" as="geometry" />
        </mxCell>
        <mxCell id="3Y9sHF1bnUpzQe8AANxG-192" value="VARCHAR" style="text;html=1;align=center;verticalAlign=middle;whiteSpace=wrap;rounded=0;labelBackgroundColor=none;fontColor=#FEFAE0;" vertex="1" parent="1">
          <mxGeometry x="1510" y="-127.65000000000009" width="170" height="30" as="geometry" />
        </mxCell>
        <mxCell id="3Y9sHF1bnUpzQe8AANxG-193" value="VARCHAR" style="text;html=1;align=center;verticalAlign=middle;whiteSpace=wrap;rounded=0;labelBackgroundColor=none;fontColor=#FEFAE0;" vertex="1" parent="1">
          <mxGeometry x="1510" y="-97.65000000000009" width="170" height="30" as="geometry" />
        </mxCell>
        <mxCell id="3Y9sHF1bnUpzQe8AANxG-194" value="NUMBER" style="text;html=1;align=center;verticalAlign=middle;whiteSpace=wrap;rounded=0;labelBackgroundColor=none;fontColor=#FEFAE0;" vertex="1" parent="1">
          <mxGeometry x="1510" y="-67.65000000000009" width="170" height="30" as="geometry" />
        </mxCell>
        <mxCell id="3Y9sHF1bnUpzQe8AANxG-195" value="VARCHAR" style="text;html=1;align=center;verticalAlign=middle;whiteSpace=wrap;rounded=0;labelBackgroundColor=none;fontColor=#FEFAE0;" vertex="1" parent="1">
          <mxGeometry x="1510" y="-37.65000000000009" width="170" height="30" as="geometry" />
        </mxCell>
        <mxCell id="3Y9sHF1bnUpzQe8AANxG-196" value="VARCHAR" style="text;html=1;align=center;verticalAlign=middle;whiteSpace=wrap;rounded=0;labelBackgroundColor=none;fontColor=#FEFAE0;" vertex="1" parent="1">
          <mxGeometry x="1510" y="-9.190000000000055" width="170" height="30" as="geometry" />
        </mxCell>
        <mxCell id="3Y9sHF1bnUpzQe8AANxG-197" value="VARCHAR" style="text;html=1;align=center;verticalAlign=middle;whiteSpace=wrap;rounded=0;labelBackgroundColor=none;fontColor=#FEFAE0;" vertex="1" parent="1">
          <mxGeometry x="1510" y="20.809999999999945" width="170" height="30" as="geometry" />
        </mxCell>
        <mxCell id="3Y9sHF1bnUpzQe8AANxG-198" value="VARCHAR" style="text;html=1;align=center;verticalAlign=middle;whiteSpace=wrap;rounded=0;labelBackgroundColor=none;fontColor=#FEFAE0;" vertex="1" parent="1">
          <mxGeometry x="1510" y="50.809999999999945" width="170" height="30" as="geometry" />
        </mxCell>
        <mxCell id="3Y9sHF1bnUpzQe8AANxG-199" value="NUMBER" style="text;html=1;align=center;verticalAlign=middle;whiteSpace=wrap;rounded=0;labelBackgroundColor=none;fontColor=#FEFAE0;" vertex="1" parent="1">
          <mxGeometry x="1450" y="111.95000000000005" width="170" height="30" as="geometry" />
        </mxCell>
        <mxCell id="3Y9sHF1bnUpzQe8AANxG-200" value="VARCHAR" style="text;html=1;align=center;verticalAlign=middle;whiteSpace=wrap;rounded=0;labelBackgroundColor=none;fontColor=#FEFAE0;" vertex="1" parent="1">
          <mxGeometry x="1450" y="141.95000000000005" width="170" height="30" as="geometry" />
        </mxCell>
        <mxCell id="3Y9sHF1bnUpzQe8AANxG-201" value="VARCHAR" style="text;html=1;align=center;verticalAlign=middle;whiteSpace=wrap;rounded=0;labelBackgroundColor=none;fontColor=#FEFAE0;" vertex="1" parent="1">
          <mxGeometry x="1450" y="201.95000000000005" width="170" height="30" as="geometry" />
        </mxCell>
        <mxCell id="3Y9sHF1bnUpzQe8AANxG-202" value="VARCHAR" style="text;html=1;align=center;verticalAlign=middle;whiteSpace=wrap;rounded=0;labelBackgroundColor=none;fontColor=#FEFAE0;" vertex="1" parent="1">
          <mxGeometry x="1450" y="231.95000000000005" width="170" height="30" as="geometry" />
        </mxCell>
        <mxCell id="3Y9sHF1bnUpzQe8AANxG-203" value="VARCHAR" style="text;html=1;align=center;verticalAlign=middle;whiteSpace=wrap;rounded=0;labelBackgroundColor=none;fontColor=#FEFAE0;" vertex="1" parent="1">
          <mxGeometry x="1450" y="261.95000000000005" width="170" height="30" as="geometry" />
        </mxCell>
        <mxCell id="3Y9sHF1bnUpzQe8AANxG-204" value="FLOAT" style="text;html=1;align=center;verticalAlign=middle;whiteSpace=wrap;rounded=0;labelBackgroundColor=none;fontColor=#FEFAE0;" vertex="1" parent="1">
          <mxGeometry x="1450" y="291.95000000000005" width="170" height="30" as="geometry" />
        </mxCell>
        <mxCell id="3Y9sHF1bnUpzQe8AANxG-205" value="FLOAT" style="text;html=1;align=center;verticalAlign=middle;whiteSpace=wrap;rounded=0;labelBackgroundColor=none;fontColor=#FEFAE0;" vertex="1" parent="1">
          <mxGeometry x="1450" y="321.95000000000005" width="170" height="30" as="geometry" />
        </mxCell>
        <mxCell id="3Y9sHF1bnUpzQe8AANxG-206" value="NUMBER" style="text;html=1;align=center;verticalAlign=middle;whiteSpace=wrap;rounded=0;labelBackgroundColor=none;fontColor=#FEFAE0;" vertex="1" parent="1">
          <mxGeometry x="1450" y="351.95000000000005" width="170" height="30" as="geometry" />
        </mxCell>
        <mxCell id="3Y9sHF1bnUpzQe8AANxG-207" value="NUMBER" style="text;html=1;align=center;verticalAlign=middle;whiteSpace=wrap;rounded=0;labelBackgroundColor=none;fontColor=#FEFAE0;" vertex="1" parent="1">
          <mxGeometry x="1450" y="381.95000000000005" width="170" height="30" as="geometry" />
        </mxCell>
        <mxCell id="3Y9sHF1bnUpzQe8AANxG-208" value="VARCHAR" style="text;html=1;align=center;verticalAlign=middle;whiteSpace=wrap;rounded=0;labelBackgroundColor=none;fontColor=#FEFAE0;" vertex="1" parent="1">
          <mxGeometry x="1450" y="411.94999999999993" width="170" height="30" as="geometry" />
        </mxCell>
        <mxCell id="3Y9sHF1bnUpzQe8AANxG-209" value="PRODUCT_ID" style="text;html=1;align=center;verticalAlign=middle;whiteSpace=wrap;rounded=0;labelBackgroundColor=none;fontColor=#FEFAE0;" vertex="1" parent="1">
          <mxGeometry x="1230" y="111.95000000000005" width="160" height="30" as="geometry" />
        </mxCell>
        <mxCell id="3Y9sHF1bnUpzQe8AANxG-210" value="PRODUCT_CODE" style="text;html=1;align=center;verticalAlign=middle;whiteSpace=wrap;rounded=0;labelBackgroundColor=none;fontColor=#FEFAE0;" vertex="1" parent="1">
          <mxGeometry x="1230" y="141.95000000000005" width="160" height="30" as="geometry" />
        </mxCell>
        <mxCell id="3Y9sHF1bnUpzQe8AANxG-211" value="PRODUCT_NAME" style="text;html=1;align=center;verticalAlign=middle;whiteSpace=wrap;rounded=0;labelBackgroundColor=none;fontColor=#FEFAE0;" vertex="1" parent="1">
          <mxGeometry x="1230" y="171.95000000000005" width="160" height="30" as="geometry" />
        </mxCell>
        <mxCell id="3Y9sHF1bnUpzQe8AANxG-212" value="SUPPLIER_ID" style="text;html=1;align=center;verticalAlign=middle;whiteSpace=wrap;rounded=0;labelBackgroundColor=none;fontColor=#FEFAE0;" vertex="1" parent="1">
          <mxGeometry x="1230" y="201.95000000000005" width="160" height="30" as="geometry" />
        </mxCell>
        <mxCell id="3Y9sHF1bnUpzQe8AANxG-213" value="DESCRIPTION" style="text;html=1;align=center;verticalAlign=middle;whiteSpace=wrap;rounded=0;labelBackgroundColor=none;fontColor=#FEFAE0;" vertex="1" parent="1">
          <mxGeometry x="1230" y="231.95000000000005" width="160" height="30" as="geometry" />
        </mxCell>
        <mxCell id="3Y9sHF1bnUpzQe8AANxG-214" value="COMPANY" style="text;html=1;align=center;verticalAlign=middle;whiteSpace=wrap;rounded=0;labelBackgroundColor=none;fontColor=#FEFAE0;" vertex="1" parent="1">
          <mxGeometry x="1230" y="261.95000000000005" width="160" height="30" as="geometry" />
        </mxCell>
        <mxCell id="3Y9sHF1bnUpzQe8AANxG-215" value="STANDARD_COST" style="text;html=1;align=center;verticalAlign=middle;whiteSpace=wrap;rounded=0;labelBackgroundColor=none;fontColor=#FEFAE0;" vertex="1" parent="1">
          <mxGeometry x="1230" y="291.95000000000005" width="160" height="30" as="geometry" />
        </mxCell>
        <mxCell id="3Y9sHF1bnUpzQe8AANxG-216" value="LIST_PRICE" style="text;html=1;align=center;verticalAlign=middle;whiteSpace=wrap;rounded=0;labelBackgroundColor=none;fontColor=#FEFAE0;" vertex="1" parent="1">
          <mxGeometry x="1230" y="321.95000000000005" width="160" height="30" as="geometry" />
        </mxCell>
        <mxCell id="3Y9sHF1bnUpzQe8AANxG-217" value="REODER_LEVEL" style="text;html=1;align=center;verticalAlign=middle;whiteSpace=wrap;rounded=0;labelBackgroundColor=none;fontColor=#FEFAE0;" vertex="1" parent="1">
          <mxGeometry x="1230" y="351.95000000000005" width="160" height="30" as="geometry" />
        </mxCell>
        <mxCell id="3Y9sHF1bnUpzQe8AANxG-218" value="TARGET_LEVEL" style="text;html=1;align=center;verticalAlign=middle;whiteSpace=wrap;rounded=0;labelBackgroundColor=none;fontColor=#FEFAE0;" vertex="1" parent="1">
          <mxGeometry x="1230" y="381.95000000000005" width="160" height="30" as="geometry" />
        </mxCell>
        <mxCell id="3Y9sHF1bnUpzQe8AANxG-219" value="VARCHAR" style="text;html=1;align=center;verticalAlign=middle;whiteSpace=wrap;rounded=0;labelBackgroundColor=none;fontColor=#FEFAE0;" vertex="1" parent="1">
          <mxGeometry x="1450" y="171.95000000000005" width="170" height="30" as="geometry" />
        </mxCell>
        <mxCell id="3Y9sHF1bnUpzQe8AANxG-220" value="QUANTITY_PER_UNIT" style="text;html=1;align=center;verticalAlign=middle;whiteSpace=wrap;rounded=0;labelBackgroundColor=none;fontColor=#FEFAE0;" vertex="1" parent="1">
          <mxGeometry x="1230" y="411.95000000000005" width="160" height="30" as="geometry" />
        </mxCell>
        <mxCell id="3Y9sHF1bnUpzQe8AANxG-221" value="DISCONTINUED" style="text;html=1;align=center;verticalAlign=middle;whiteSpace=wrap;rounded=0;labelBackgroundColor=none;fontColor=#FEFAE0;" vertex="1" parent="1">
          <mxGeometry x="1230" y="441.95000000000005" width="160" height="30" as="geometry" />
        </mxCell>
        <mxCell id="3Y9sHF1bnUpzQe8AANxG-222" value="MINMUM_REORDER_QUANTITY" style="text;html=1;align=center;verticalAlign=middle;whiteSpace=wrap;rounded=0;labelBackgroundColor=none;fontColor=#FEFAE0;" vertex="1" parent="1">
          <mxGeometry x="1230" y="471.95000000000005" width="160" height="30" as="geometry" />
        </mxCell>
        <mxCell id="3Y9sHF1bnUpzQe8AANxG-223" value="CATEGORY" style="text;html=1;align=center;verticalAlign=middle;whiteSpace=wrap;rounded=0;labelBackgroundColor=none;fontColor=#FEFAE0;" vertex="1" parent="1">
          <mxGeometry x="1230" y="501.95000000000005" width="160" height="30" as="geometry" />
        </mxCell>
        <mxCell id="3Y9sHF1bnUpzQe8AANxG-224" value="VARCHAR" style="text;html=1;align=center;verticalAlign=middle;whiteSpace=wrap;rounded=0;labelBackgroundColor=none;fontColor=#FEFAE0;" vertex="1" parent="1">
          <mxGeometry x="1450" y="441.94999999999993" width="170" height="30" as="geometry" />
        </mxCell>
        <mxCell id="3Y9sHF1bnUpzQe8AANxG-225" value="NUMBER" style="text;html=1;align=center;verticalAlign=middle;whiteSpace=wrap;rounded=0;labelBackgroundColor=none;fontColor=#FEFAE0;" vertex="1" parent="1">
          <mxGeometry x="1450" y="471.94999999999993" width="170" height="30" as="geometry" />
        </mxCell>
        <mxCell id="3Y9sHF1bnUpzQe8AANxG-226" value="NUMBER" style="text;html=1;align=center;verticalAlign=middle;whiteSpace=wrap;rounded=0;labelBackgroundColor=none;fontColor=#FEFAE0;" vertex="1" parent="1">
          <mxGeometry x="1450" y="501.94999999999993" width="170" height="30" as="geometry" />
        </mxCell>
        <mxCell id="3Y9sHF1bnUpzQe8AANxG-227" value="VARCHAR" style="text;html=1;align=center;verticalAlign=middle;whiteSpace=wrap;rounded=0;labelBackgroundColor=none;fontColor=#FEFAE0;" vertex="1" parent="1">
          <mxGeometry x="410" y="1849.64" width="170" height="30" as="geometry" />
        </mxCell>
        <mxCell id="3Y9sHF1bnUpzQe8AANxG-228" value="&lt;p style=&quot;margin:0px;margin-top:4px;text-align:center;&quot;&gt;&lt;b&gt;Dim_Date&lt;/b&gt;&lt;/p&gt;" style="verticalAlign=top;align=left;overflow=fill;html=1;whiteSpace=wrap;labelBackgroundColor=none;fillColor=#BC6C25;strokeColor=#DDA15E;fontColor=#FEFAE0;" vertex="1" parent="1">
          <mxGeometry x="-1040" y="841.7200000000001" width="550" height="430.87" as="geometry" />
        </mxCell>
        <mxCell id="3Y9sHF1bnUpzQe8AANxG-229" value="" style="endArrow=none;html=1;rounded=0;entryX=0.202;entryY=-0.004;entryDx=0;entryDy=0;exitX=0.195;exitY=0.996;exitDx=0;exitDy=0;entryPerimeter=0;exitPerimeter=0;labelBackgroundColor=none;fontColor=default;strokeColor=#DDA15E;" edge="1" parent="1" source="3Y9sHF1bnUpzQe8AANxG-228" target="3Y9sHF1bnUpzQe8AANxG-228">
          <mxGeometry width="50" height="50" relative="1" as="geometry">
            <mxPoint x="-690" y="1041.72" as="sourcePoint" />
            <mxPoint x="-640" y="991.7200000000001" as="targetPoint" />
          </mxGeometry>
        </mxCell>
        <mxCell id="3Y9sHF1bnUpzQe8AANxG-230" value="DATE" style="text;html=1;align=center;verticalAlign=middle;whiteSpace=wrap;rounded=0;labelBackgroundColor=none;fontColor=#FEFAE0;" vertex="1" parent="1">
          <mxGeometry x="-640" y="881.7200000000001" width="170" height="30" as="geometry" />
        </mxCell>
        <mxCell id="3Y9sHF1bnUpzQe8AANxG-231" value="NUMBER" style="text;html=1;align=center;verticalAlign=middle;whiteSpace=wrap;rounded=0;labelBackgroundColor=none;fontColor=#FEFAE0;" vertex="1" parent="1">
          <mxGeometry x="-640" y="911.7200000000001" width="170" height="30" as="geometry" />
        </mxCell>
        <mxCell id="3Y9sHF1bnUpzQe8AANxG-232" value="NUMBER" style="text;html=1;align=center;verticalAlign=middle;whiteSpace=wrap;rounded=0;labelBackgroundColor=none;fontColor=#FEFAE0;" vertex="1" parent="1">
          <mxGeometry x="-640" y="971.7200000000001" width="170" height="30" as="geometry" />
        </mxCell>
        <mxCell id="3Y9sHF1bnUpzQe8AANxG-233" value="VARCHAR" style="text;html=1;align=center;verticalAlign=middle;whiteSpace=wrap;rounded=0;labelBackgroundColor=none;fontColor=#FEFAE0;" vertex="1" parent="1">
          <mxGeometry x="-640" y="1001.7200000000001" width="170" height="30" as="geometry" />
        </mxCell>
        <mxCell id="3Y9sHF1bnUpzQe8AANxG-234" value="DATE" style="text;html=1;align=center;verticalAlign=middle;whiteSpace=wrap;rounded=0;labelBackgroundColor=none;fontColor=#FEFAE0;" vertex="1" parent="1">
          <mxGeometry x="-640" y="1031.72" width="170" height="30" as="geometry" />
        </mxCell>
        <mxCell id="3Y9sHF1bnUpzQe8AANxG-235" value="NUMBER" style="text;html=1;align=center;verticalAlign=middle;whiteSpace=wrap;rounded=0;labelBackgroundColor=none;fontColor=#FEFAE0;" vertex="1" parent="1">
          <mxGeometry x="-640" y="1061.72" width="170" height="30" as="geometry" />
        </mxCell>
        <mxCell id="3Y9sHF1bnUpzQe8AANxG-236" value="NUMBER" style="text;html=1;align=center;verticalAlign=middle;whiteSpace=wrap;rounded=0;labelBackgroundColor=none;fontColor=#FEFAE0;" vertex="1" parent="1">
          <mxGeometry x="-640" y="1091.72" width="170" height="30" as="geometry" />
        </mxCell>
        <mxCell id="3Y9sHF1bnUpzQe8AANxG-237" value="VARCHAR" style="text;html=1;align=center;verticalAlign=middle;whiteSpace=wrap;rounded=0;labelBackgroundColor=none;fontColor=#FEFAE0;" vertex="1" parent="1">
          <mxGeometry x="-640" y="1121.72" width="170" height="30" as="geometry" />
        </mxCell>
        <mxCell id="3Y9sHF1bnUpzQe8AANxG-238" value="NUMBER" style="text;html=1;align=center;verticalAlign=middle;whiteSpace=wrap;rounded=0;labelBackgroundColor=none;fontColor=#FEFAE0;" vertex="1" parent="1">
          <mxGeometry x="-640" y="1151.72" width="170" height="30" as="geometry" />
        </mxCell>
        <mxCell id="3Y9sHF1bnUpzQe8AANxG-239" value="NUMBER" style="text;html=1;align=center;verticalAlign=middle;whiteSpace=wrap;rounded=0;labelBackgroundColor=none;fontColor=#FEFAE0;" vertex="1" parent="1">
          <mxGeometry x="-640" y="1181.7199999999998" width="170" height="30" as="geometry" />
        </mxCell>
        <mxCell id="3Y9sHF1bnUpzQe8AANxG-240" value="TIME_STAMP" style="text;html=1;align=center;verticalAlign=middle;whiteSpace=wrap;rounded=0;labelBackgroundColor=none;fontColor=#FEFAE0;" vertex="1" parent="1">
          <mxGeometry x="-860" y="881.7200000000001" width="160" height="30" as="geometry" />
        </mxCell>
        <mxCell id="3Y9sHF1bnUpzQe8AANxG-241" value="DAY_OF_MONTH" style="text;html=1;align=center;verticalAlign=middle;whiteSpace=wrap;rounded=0;labelBackgroundColor=none;fontColor=#FEFAE0;" vertex="1" parent="1">
          <mxGeometry x="-860" y="911.7200000000001" width="160" height="30" as="geometry" />
        </mxCell>
        <mxCell id="3Y9sHF1bnUpzQe8AANxG-242" value="DAY_OF_WEEK" style="text;html=1;align=center;verticalAlign=middle;whiteSpace=wrap;rounded=0;labelBackgroundColor=none;fontColor=#FEFAE0;" vertex="1" parent="1">
          <mxGeometry x="-860" y="941.7200000000001" width="160" height="30" as="geometry" />
        </mxCell>
        <mxCell id="3Y9sHF1bnUpzQe8AANxG-243" value="YEAR_OF_WEEK" style="text;html=1;align=center;verticalAlign=middle;whiteSpace=wrap;rounded=0;labelBackgroundColor=none;fontColor=#FEFAE0;" vertex="1" parent="1">
          <mxGeometry x="-860" y="971.7200000000001" width="160" height="30" as="geometry" />
        </mxCell>
        <mxCell id="3Y9sHF1bnUpzQe8AANxG-244" value="DAY_NAME" style="text;html=1;align=center;verticalAlign=middle;whiteSpace=wrap;rounded=0;labelBackgroundColor=none;fontColor=#FEFAE0;" vertex="1" parent="1">
          <mxGeometry x="-860" y="1001.7200000000001" width="160" height="30" as="geometry" />
        </mxCell>
        <mxCell id="3Y9sHF1bnUpzQe8AANxG-245" value="FIRST_DAY_OF_MONTH" style="text;html=1;align=center;verticalAlign=middle;whiteSpace=wrap;rounded=0;labelBackgroundColor=none;fontColor=#FEFAE0;" vertex="1" parent="1">
          <mxGeometry x="-860" y="1031.72" width="160" height="30" as="geometry" />
        </mxCell>
        <mxCell id="3Y9sHF1bnUpzQe8AANxG-246" value="FIRST_WEEK_OF_MONTH" style="text;html=1;align=center;verticalAlign=middle;whiteSpace=wrap;rounded=0;labelBackgroundColor=none;fontColor=#FEFAE0;" vertex="1" parent="1">
          <mxGeometry x="-860" y="1061.72" width="160" height="30" as="geometry" />
        </mxCell>
        <mxCell id="3Y9sHF1bnUpzQe8AANxG-247" value="WEEK_OF_MONTH" style="text;html=1;align=center;verticalAlign=middle;whiteSpace=wrap;rounded=0;labelBackgroundColor=none;fontColor=#FEFAE0;" vertex="1" parent="1">
          <mxGeometry x="-860" y="1091.72" width="160" height="30" as="geometry" />
        </mxCell>
        <mxCell id="3Y9sHF1bnUpzQe8AANxG-248" value="MONTH_NAME" style="text;html=1;align=center;verticalAlign=middle;whiteSpace=wrap;rounded=0;labelBackgroundColor=none;fontColor=#FEFAE0;" vertex="1" parent="1">
          <mxGeometry x="-860" y="1121.72" width="160" height="30" as="geometry" />
        </mxCell>
        <mxCell id="3Y9sHF1bnUpzQe8AANxG-249" value="QUARTER" style="text;html=1;align=center;verticalAlign=middle;whiteSpace=wrap;rounded=0;labelBackgroundColor=none;fontColor=#FEFAE0;" vertex="1" parent="1">
          <mxGeometry x="-860" y="1151.72" width="160" height="30" as="geometry" />
        </mxCell>
        <mxCell id="3Y9sHF1bnUpzQe8AANxG-250" value="" style="endArrow=none;html=1;rounded=0;entryX=0.75;entryY=0;entryDx=0;entryDy=0;exitX=0.75;exitY=1;exitDx=0;exitDy=0;labelBackgroundColor=none;fontColor=default;strokeColor=#DDA15E;" edge="1" parent="1" source="3Y9sHF1bnUpzQe8AANxG-228" target="3Y9sHF1bnUpzQe8AANxG-228">
          <mxGeometry width="50" height="50" relative="1" as="geometry">
            <mxPoint x="-907" y="1401.7199999999998" as="sourcePoint" />
            <mxPoint x="-907" y="851.7200000000001" as="targetPoint" />
          </mxGeometry>
        </mxCell>
        <mxCell id="3Y9sHF1bnUpzQe8AANxG-251" value="NUMBER" style="text;html=1;align=center;verticalAlign=middle;whiteSpace=wrap;rounded=0;labelBackgroundColor=none;fontColor=#FEFAE0;" vertex="1" parent="1">
          <mxGeometry x="-640" y="941.7200000000001" width="170" height="30" as="geometry" />
        </mxCell>
        <mxCell id="3Y9sHF1bnUpzQe8AANxG-252" value="YEAR" style="text;html=1;align=center;verticalAlign=middle;whiteSpace=wrap;rounded=0;labelBackgroundColor=none;fontColor=#FEFAE0;" vertex="1" parent="1">
          <mxGeometry x="-860" y="1181.72" width="160" height="30" as="geometry" />
        </mxCell>
        <mxCell id="3Y9sHF1bnUpzQe8AANxG-253" value="WEEKISO" style="text;html=1;align=center;verticalAlign=middle;whiteSpace=wrap;rounded=0;labelBackgroundColor=none;fontColor=#FEFAE0;" vertex="1" parent="1">
          <mxGeometry x="-860" y="1211.72" width="160" height="30" as="geometry" />
        </mxCell>
        <mxCell id="3Y9sHF1bnUpzQe8AANxG-254" value="NUMBER" style="text;html=1;align=center;verticalAlign=middle;whiteSpace=wrap;rounded=0;labelBackgroundColor=none;fontColor=#FEFAE0;" vertex="1" parent="1">
          <mxGeometry x="-640" y="1211.7199999999998" width="170" height="30" as="geometry" />
        </mxCell>
        <mxCell id="3Y9sHF1bnUpzQe8AANxG-255" value="PK" style="text;html=1;align=center;verticalAlign=middle;whiteSpace=wrap;rounded=0;labelBackgroundColor=none;fontColor=#FEFAE0;" vertex="1" parent="1">
          <mxGeometry x="-1060" y="881.7200000000001" width="160" height="30" as="geometry" />
        </mxCell>
        <mxCell id="3Y9sHF1bnUpzQe8AANxG-256" value="PK" style="text;html=1;align=center;verticalAlign=middle;whiteSpace=wrap;rounded=0;labelBackgroundColor=none;fontColor=#FEFAE0;" vertex="1" parent="1">
          <mxGeometry x="1080" y="-457.65" width="170" height="30" as="geometry" />
        </mxCell>
        <mxCell id="3Y9sHF1bnUpzQe8AANxG-257" value="" style="edgeStyle=entityRelationEdgeStyle;fontSize=12;html=1;endArrow=ERzeroToMany;endFill=1;rounded=0;" edge="1" parent="1" source="3Y9sHF1bnUpzQe8AANxG-160" target="3Y9sHF1bnUpzQe8AANxG-1">
          <mxGeometry width="100" height="100" relative="1" as="geometry">
            <mxPoint x="720" y="31" as="sourcePoint" />
            <mxPoint x="130" y="10" as="targetPoint" />
            <Array as="points">
              <mxPoint x="1080" y="-120" />
              <mxPoint x="1090" y="-80" />
              <mxPoint x="730" y="-520" />
              <mxPoint x="1200" y="180" />
              <mxPoint x="870" y="120" />
              <mxPoint x="890" y="110" />
            </Array>
          </mxGeometry>
        </mxCell>
        <mxCell id="3Y9sHF1bnUpzQe8AANxG-258" value="" style="edgeStyle=entityRelationEdgeStyle;fontSize=12;html=1;endArrow=ERzeroToMany;endFill=1;rounded=0;entryX=0;entryY=0.5;entryDx=0;entryDy=0;" edge="1" parent="1" target="3Y9sHF1bnUpzQe8AANxG-1">
          <mxGeometry width="100" height="100" relative="1" as="geometry">
            <mxPoint x="-370" y="-290" as="sourcePoint" />
            <mxPoint x="-270" y="-390" as="targetPoint" />
          </mxGeometry>
        </mxCell>
        <mxCell id="3Y9sHF1bnUpzQe8AANxG-259" value="" style="edgeStyle=entityRelationEdgeStyle;fontSize=12;html=1;endArrow=ERzeroToMany;endFill=1;rounded=0;entryX=0;entryY=0.75;entryDx=0;entryDy=0;" edge="1" parent="1" target="3Y9sHF1bnUpzQe8AANxG-1">
          <mxGeometry width="100" height="100" relative="1" as="geometry">
            <mxPoint x="-480" y="940" as="sourcePoint" />
            <mxPoint x="-380" y="840" as="targetPoint" />
          </mxGeometry>
        </mxCell>
        <mxCell id="3Y9sHF1bnUpzQe8AANxG-260" value="&lt;p style=&quot;margin:0px;margin-top:4px;text-align:center;&quot;&gt;&lt;b&gt;Dim_Products&lt;/b&gt;&lt;/p&gt;" style="verticalAlign=top;align=left;overflow=fill;html=1;whiteSpace=wrap;labelBackgroundColor=none;fillColor=#BC6C25;strokeColor=#DDA15E;fontColor=#FEFAE0;" vertex="1" parent="1">
          <mxGeometry x="1200" y="657.97" width="550" height="442.03" as="geometry" />
        </mxCell>
        <mxCell id="3Y9sHF1bnUpzQe8AANxG-261" value="" style="endArrow=none;html=1;rounded=0;entryX=0.202;entryY=-0.004;entryDx=0;entryDy=0;exitX=0.195;exitY=0.996;exitDx=0;exitDy=0;entryPerimeter=0;exitPerimeter=0;labelBackgroundColor=none;fontColor=default;strokeColor=#DDA15E;" edge="1" parent="1" source="3Y9sHF1bnUpzQe8AANxG-260" target="3Y9sHF1bnUpzQe8AANxG-260">
          <mxGeometry width="50" height="50" relative="1" as="geometry">
            <mxPoint x="1550" y="857.97" as="sourcePoint" />
            <mxPoint x="1600" y="807.97" as="targetPoint" />
          </mxGeometry>
        </mxCell>
        <mxCell id="3Y9sHF1bnUpzQe8AANxG-262" value="NUMBER" style="text;html=1;align=center;verticalAlign=middle;whiteSpace=wrap;rounded=0;labelBackgroundColor=none;fontColor=#FEFAE0;" vertex="1" parent="1">
          <mxGeometry x="1600" y="697.97" width="170" height="30" as="geometry" />
        </mxCell>
        <mxCell id="3Y9sHF1bnUpzQe8AANxG-263" value="VARCHAR" style="text;html=1;align=center;verticalAlign=middle;whiteSpace=wrap;rounded=0;labelBackgroundColor=none;fontColor=#FEFAE0;" vertex="1" parent="1">
          <mxGeometry x="1600" y="727.97" width="170" height="30" as="geometry" />
        </mxCell>
        <mxCell id="3Y9sHF1bnUpzQe8AANxG-264" value="VARCHAR" style="text;html=1;align=center;verticalAlign=middle;whiteSpace=wrap;rounded=0;labelBackgroundColor=none;fontColor=#FEFAE0;" vertex="1" parent="1">
          <mxGeometry x="1600" y="787.97" width="170" height="30" as="geometry" />
        </mxCell>
        <mxCell id="3Y9sHF1bnUpzQe8AANxG-265" value="VARCHAR" style="text;html=1;align=center;verticalAlign=middle;whiteSpace=wrap;rounded=0;labelBackgroundColor=none;fontColor=#FEFAE0;" vertex="1" parent="1">
          <mxGeometry x="1600" y="817.97" width="170" height="30" as="geometry" />
        </mxCell>
        <mxCell id="3Y9sHF1bnUpzQe8AANxG-266" value="FLOAT" style="text;html=1;align=center;verticalAlign=middle;whiteSpace=wrap;rounded=0;labelBackgroundColor=none;fontColor=#FEFAE0;" vertex="1" parent="1">
          <mxGeometry x="1600" y="847.97" width="170" height="30" as="geometry" />
        </mxCell>
        <mxCell id="3Y9sHF1bnUpzQe8AANxG-267" value="FLOAT" style="text;html=1;align=center;verticalAlign=middle;whiteSpace=wrap;rounded=0;labelBackgroundColor=none;fontColor=#FEFAE0;" vertex="1" parent="1">
          <mxGeometry x="1600" y="877.9699999999999" width="170" height="30" as="geometry" />
        </mxCell>
        <mxCell id="3Y9sHF1bnUpzQe8AANxG-268" value="NUMBER" style="text;html=1;align=center;verticalAlign=middle;whiteSpace=wrap;rounded=0;labelBackgroundColor=none;fontColor=#FEFAE0;" vertex="1" parent="1">
          <mxGeometry x="1600" y="907.9699999999999" width="170" height="30" as="geometry" />
        </mxCell>
        <mxCell id="3Y9sHF1bnUpzQe8AANxG-269" value="NUMBER" style="text;html=1;align=center;verticalAlign=middle;whiteSpace=wrap;rounded=0;labelBackgroundColor=none;fontColor=#FEFAE0;" vertex="1" parent="1">
          <mxGeometry x="1600" y="937.9699999999999" width="170" height="30" as="geometry" />
        </mxCell>
        <mxCell id="3Y9sHF1bnUpzQe8AANxG-270" value="VARCHAR" style="text;html=1;align=center;verticalAlign=middle;whiteSpace=wrap;rounded=0;labelBackgroundColor=none;fontColor=#FEFAE0;" vertex="1" parent="1">
          <mxGeometry x="1600" y="967.9699999999999" width="170" height="30" as="geometry" />
        </mxCell>
        <mxCell id="3Y9sHF1bnUpzQe8AANxG-271" value="NUMBER" style="text;html=1;align=center;verticalAlign=middle;whiteSpace=wrap;rounded=0;labelBackgroundColor=none;fontColor=#FEFAE0;" vertex="1" parent="1">
          <mxGeometry x="1600" y="997.9699999999999" width="170" height="30" as="geometry" />
        </mxCell>
        <mxCell id="3Y9sHF1bnUpzQe8AANxG-272" value="PRODUCT_ID" style="text;html=1;align=center;verticalAlign=middle;whiteSpace=wrap;rounded=0;labelBackgroundColor=none;fontColor=#FEFAE0;" vertex="1" parent="1">
          <mxGeometry x="1380" y="697.97" width="160" height="30" as="geometry" />
        </mxCell>
        <mxCell id="3Y9sHF1bnUpzQe8AANxG-273" value="PRODUCT_CODE" style="text;html=1;align=center;verticalAlign=middle;whiteSpace=wrap;rounded=0;labelBackgroundColor=none;fontColor=#FEFAE0;" vertex="1" parent="1">
          <mxGeometry x="1380" y="727.97" width="160" height="30" as="geometry" />
        </mxCell>
        <mxCell id="3Y9sHF1bnUpzQe8AANxG-274" value="PRODUCT_NAME" style="text;html=1;align=center;verticalAlign=middle;whiteSpace=wrap;rounded=0;labelBackgroundColor=none;fontColor=#FEFAE0;" vertex="1" parent="1">
          <mxGeometry x="1380" y="757.97" width="160" height="30" as="geometry" />
        </mxCell>
        <mxCell id="3Y9sHF1bnUpzQe8AANxG-275" value="DESCRIPTION" style="text;html=1;align=center;verticalAlign=middle;whiteSpace=wrap;rounded=0;labelBackgroundColor=none;fontColor=#FEFAE0;" vertex="1" parent="1">
          <mxGeometry x="1380" y="787.97" width="160" height="30" as="geometry" />
        </mxCell>
        <mxCell id="3Y9sHF1bnUpzQe8AANxG-276" value="COMPANY" style="text;html=1;align=center;verticalAlign=middle;whiteSpace=wrap;rounded=0;labelBackgroundColor=none;fontColor=#FEFAE0;" vertex="1" parent="1">
          <mxGeometry x="1380" y="817.97" width="160" height="30" as="geometry" />
        </mxCell>
        <mxCell id="3Y9sHF1bnUpzQe8AANxG-277" value="STANDARD_COST" style="text;html=1;align=center;verticalAlign=middle;whiteSpace=wrap;rounded=0;labelBackgroundColor=none;fontColor=#FEFAE0;" vertex="1" parent="1">
          <mxGeometry x="1380" y="847.97" width="160" height="30" as="geometry" />
        </mxCell>
        <mxCell id="3Y9sHF1bnUpzQe8AANxG-278" value="LIST_PRICE" style="text;html=1;align=center;verticalAlign=middle;whiteSpace=wrap;rounded=0;labelBackgroundColor=none;fontColor=#FEFAE0;" vertex="1" parent="1">
          <mxGeometry x="1380" y="877.9699999999999" width="160" height="30" as="geometry" />
        </mxCell>
        <mxCell id="3Y9sHF1bnUpzQe8AANxG-279" value="REORDER_LEVEL" style="text;html=1;align=center;verticalAlign=middle;whiteSpace=wrap;rounded=0;labelBackgroundColor=none;fontColor=#FEFAE0;" vertex="1" parent="1">
          <mxGeometry x="1380" y="907.9699999999999" width="160" height="30" as="geometry" />
        </mxCell>
        <mxCell id="3Y9sHF1bnUpzQe8AANxG-280" value="TARGET_LEVEL" style="text;html=1;align=center;verticalAlign=middle;whiteSpace=wrap;rounded=0;labelBackgroundColor=none;fontColor=#FEFAE0;" vertex="1" parent="1">
          <mxGeometry x="1380" y="937.9699999999999" width="160" height="30" as="geometry" />
        </mxCell>
        <mxCell id="3Y9sHF1bnUpzQe8AANxG-281" value="QUANITY_PER_UNIT" style="text;html=1;align=center;verticalAlign=middle;whiteSpace=wrap;rounded=0;labelBackgroundColor=none;fontColor=#FEFAE0;" vertex="1" parent="1">
          <mxGeometry x="1380" y="967.9699999999999" width="160" height="30" as="geometry" />
        </mxCell>
        <mxCell id="3Y9sHF1bnUpzQe8AANxG-282" value="" style="endArrow=none;html=1;rounded=0;entryX=0.75;entryY=0;entryDx=0;entryDy=0;exitX=0.75;exitY=1;exitDx=0;exitDy=0;labelBackgroundColor=none;fontColor=default;strokeColor=#DDA15E;" edge="1" parent="1" source="3Y9sHF1bnUpzQe8AANxG-260" target="3Y9sHF1bnUpzQe8AANxG-260">
          <mxGeometry width="50" height="50" relative="1" as="geometry">
            <mxPoint x="1333" y="1217.9699999999998" as="sourcePoint" />
            <mxPoint x="1333" y="667.97" as="targetPoint" />
          </mxGeometry>
        </mxCell>
        <mxCell id="3Y9sHF1bnUpzQe8AANxG-283" value="VARCHAR" style="text;html=1;align=center;verticalAlign=middle;whiteSpace=wrap;rounded=0;labelBackgroundColor=none;fontColor=#FEFAE0;" vertex="1" parent="1">
          <mxGeometry x="1600" y="757.97" width="170" height="30" as="geometry" />
        </mxCell>
        <mxCell id="3Y9sHF1bnUpzQe8AANxG-284" value="DISCONTINUED" style="text;html=1;align=center;verticalAlign=middle;whiteSpace=wrap;rounded=0;labelBackgroundColor=none;fontColor=#FEFAE0;" vertex="1" parent="1">
          <mxGeometry x="1380" y="997.9699999999999" width="160" height="30" as="geometry" />
        </mxCell>
        <mxCell id="3Y9sHF1bnUpzQe8AANxG-285" value="MINIMUM_REORDER_QUANTITY" style="text;html=1;align=center;verticalAlign=middle;whiteSpace=wrap;rounded=0;labelBackgroundColor=none;fontColor=#FEFAE0;" vertex="1" parent="1">
          <mxGeometry x="1380" y="1027.9699999999998" width="160" height="30" as="geometry" />
        </mxCell>
        <mxCell id="3Y9sHF1bnUpzQe8AANxG-286" value="CATEGORY" style="text;html=1;align=center;verticalAlign=middle;whiteSpace=wrap;rounded=0;labelBackgroundColor=none;fontColor=#FEFAE0;" vertex="1" parent="1">
          <mxGeometry x="1380" y="1057.9699999999998" width="160" height="30" as="geometry" />
        </mxCell>
        <mxCell id="3Y9sHF1bnUpzQe8AANxG-287" value="NUMBER" style="text;html=1;align=center;verticalAlign=middle;whiteSpace=wrap;rounded=0;labelBackgroundColor=none;fontColor=#FEFAE0;" vertex="1" parent="1">
          <mxGeometry x="1600" y="1027.9699999999998" width="170" height="30" as="geometry" />
        </mxCell>
        <mxCell id="3Y9sHF1bnUpzQe8AANxG-288" value="VARCHAR" style="text;html=1;align=center;verticalAlign=middle;whiteSpace=wrap;rounded=0;labelBackgroundColor=none;fontColor=#FEFAE0;" vertex="1" parent="1">
          <mxGeometry x="1600" y="1057.9699999999998" width="170" height="30" as="geometry" />
        </mxCell>
        <mxCell id="3Y9sHF1bnUpzQe8AANxG-289" value="PK" style="text;html=1;align=center;verticalAlign=middle;whiteSpace=wrap;rounded=0;labelBackgroundColor=none;fontColor=#FEFAE0;" vertex="1" parent="1">
          <mxGeometry x="1170" y="697.97" width="170" height="30" as="geometry" />
        </mxCell>
        <mxCell id="3Y9sHF1bnUpzQe8AANxG-290" value="" style="edgeStyle=entityRelationEdgeStyle;fontSize=12;html=1;endArrow=ERzeroToMany;endFill=1;rounded=0;exitX=0;exitY=0.5;exitDx=0;exitDy=0;entryX=1;entryY=0.75;entryDx=0;entryDy=0;" edge="1" parent="1" source="3Y9sHF1bnUpzQe8AANxG-260" target="3Y9sHF1bnUpzQe8AANxG-1">
          <mxGeometry width="100" height="100" relative="1" as="geometry">
            <mxPoint x="860" y="970" as="sourcePoint" />
            <mxPoint x="960" y="870" as="targetPoint" />
          </mxGeometry>
        </mxCell>
        <mxCell id="3Y9sHF1bnUpzQe8AANxG-291" value="FK" style="text;html=1;align=center;verticalAlign=middle;whiteSpace=wrap;rounded=0;labelBackgroundColor=none;fontColor=#FEFAE0;" vertex="1" parent="1">
          <mxGeometry x="-20" y="1601.54" width="170" height="30" as="geometry" />
        </mxCell>
        <mxCell id="3Y9sHF1bnUpzQe8AANxG-292" value="PK" style="text;html=1;align=center;verticalAlign=middle;whiteSpace=wrap;rounded=0;labelBackgroundColor=none;fontColor=#FEFAE0;" vertex="1" parent="1">
          <mxGeometry x="-20" y="1481.54" width="170" height="30" as="geometry" />
        </mxCell>
        <mxCell id="3Y9sHF1bnUpzQe8AANxG-293" value="" style="edgeStyle=entityRelationEdgeStyle;fontSize=12;html=1;endArrow=ERzeroToMany;endFill=1;rounded=0;strokeColor=#FF6392;fontColor=#5AA9E6;fillColor=#FFE45E;exitX=0;exitY=0.75;exitDx=0;exitDy=0;entryX=1;entryY=0.25;entryDx=0;entryDy=0;" edge="1" parent="1" source="3Y9sHF1bnUpzQe8AANxG-260" target="3Y9sHF1bnUpzQe8AANxG-93">
          <mxGeometry width="100" height="100" relative="1" as="geometry">
            <mxPoint x="810" y="1120" as="sourcePoint" />
            <mxPoint x="910" y="1020" as="targetPoint" />
            <Array as="points">
              <mxPoint x="1140" y="1000" />
            </Array>
          </mxGeometry>
        </mxCell>
        <mxCell id="3Y9sHF1bnUpzQe8AANxG-294" value="" style="edgeStyle=entityRelationEdgeStyle;fontSize=12;html=1;endArrow=ERzeroToMany;endFill=1;rounded=0;strokeColor=#FF6392;fontColor=#5AA9E6;fillColor=#FFE45E;entryX=0;entryY=0.5;entryDx=0;entryDy=0;exitX=1;exitY=0.25;exitDx=0;exitDy=0;" edge="1" parent="1" source="3Y9sHF1bnUpzQe8AANxG-120" target="3Y9sHF1bnUpzQe8AANxG-38">
          <mxGeometry width="100" height="100" relative="1" as="geometry">
            <mxPoint x="-420" y="-610" as="sourcePoint" />
            <mxPoint x="70" y="-790" as="targetPoint" />
          </mxGeometry>
        </mxCell>
        <mxCell id="3Y9sHF1bnUpzQe8AANxG-295" value="" style="edgeStyle=entityRelationEdgeStyle;fontSize=12;html=1;endArrow=ERzeroToMany;endFill=1;rounded=0;strokeColor=#FF6392;fontColor=#5AA9E6;fillColor=#FFE45E;exitX=0;exitY=0.25;exitDx=0;exitDy=0;entryX=1;entryY=0.5;entryDx=0;entryDy=0;" edge="1" parent="1" source="3Y9sHF1bnUpzQe8AANxG-160" target="3Y9sHF1bnUpzQe8AANxG-38">
          <mxGeometry width="100" height="100" relative="1" as="geometry">
            <mxPoint x="860" y="-1020" as="sourcePoint" />
            <mxPoint x="960" y="-1120" as="targetPoint" />
            <Array as="points">
              <mxPoint x="720" y="-1200" />
            </Array>
          </mxGeometry>
        </mxCell>
        <mxCell id="3Y9sHF1bnUpzQe8AANxG-296" value="" style="edgeStyle=entityRelationEdgeStyle;fontSize=12;html=1;endArrow=ERzeroToMany;endFill=1;rounded=0;strokeColor=#FF6392;fontColor=#5AA9E6;fillColor=#FFE45E;exitX=0;exitY=0.25;exitDx=0;exitDy=0;entryX=1;entryY=0.75;entryDx=0;entryDy=0;" edge="1" parent="1" source="3Y9sHF1bnUpzQe8AANxG-260" target="3Y9sHF1bnUpzQe8AANxG-38">
          <mxGeometry width="100" height="100" relative="1" as="geometry">
            <mxPoint x="770" y="-340" as="sourcePoint" />
            <mxPoint x="870" y="-440" as="targetPoint" />
            <Array as="points">
              <mxPoint x="1680" y="-180" />
            </Array>
          </mxGeometry>
        </mxCell>
        <mxCell id="3Y9sHF1bnUpzQe8AANxG-297" value="SUPPLIER_FIRST_NAME" style="text;html=1;align=center;verticalAlign=middle;whiteSpace=wrap;rounded=0;labelBackgroundColor=none;fontColor=#FEFAE0;" vertex="1" parent="1">
          <mxGeometry x="190" y="1797.1999999999998" width="160" height="64.96" as="geometry" />
        </mxCell>
        <mxCell id="3Y9sHF1bnUpzQe8AANxG-298" value="SUPPLIER_LAST_NAME" style="text;html=1;align=center;verticalAlign=middle;whiteSpace=wrap;rounded=0;labelBackgroundColor=none;fontColor=#FEFAE0;" vertex="1" parent="1">
          <mxGeometry x="190" y="1832.1599999999999" width="160" height="64.96" as="geometry" />
        </mxCell>
        <mxCell id="3Y9sHF1bnUpzQe8AANxG-300" value="VARCHAR" style="text;html=1;align=center;verticalAlign=middle;whiteSpace=wrap;rounded=0;labelBackgroundColor=none;fontColor=#FEFAE0;" vertex="1" parent="1">
          <mxGeometry x="410" y="1814.68" width="170" height="30" as="geometry" />
        </mxCell>
      </root>
    </mxGraphModel>
  </diagram>
</mxfile>
